<svg xmlns="http://www.w3.org/2000/svg" width="29.583" height="29.583" viewBox="0 0 29.583 29.583"><defs><style>.a{fill:#1aa6b7;}</style></defs><path class="a" d="M26.633,15.8A24.9,24.9,0,0,1,15.8,26.633l-3.616-3.616a1.634,1.634,0,0,0-1.676-.394,18.747,18.747,0,0,1-5.867.937A1.648,1.648,0,0,0,3,25.2v5.736a1.648,1.648,0,0,0,1.643,1.643A27.937,27.937,0,0,0,32.583,4.643,1.648,1.648,0,0,0,30.939,3H25.187a1.648,1.648,0,0,0-1.643,1.643,18.671,18.671,0,0,1-.937,5.867,1.649,1.649,0,0,0,.411,1.676Z" transform="translate(-3 -3)"/></svg>