<svg xmlns="http://www.w3.org/2000/svg" width="28.748" height="37.732" viewBox="0 0 28.748 37.732"><defs><style>.a{fill:#1aa6b7;}</style></defs><path class="a" d="M29.155,13.577h-1.8V9.984a8.984,8.984,0,0,0-17.968,0v3.594h-1.8A3.6,3.6,0,0,0,4,17.171V35.138a3.6,3.6,0,0,0,3.594,3.594H29.155a3.6,3.6,0,0,0,3.594-3.594V17.171A3.6,3.6,0,0,0,29.155,13.577ZM18.374,29.748a3.594,3.594,0,1,1,3.594-3.594A3.6,3.6,0,0,1,18.374,29.748Zm5.57-16.171H12.8V9.984a5.57,5.57,0,0,1,11.14,0Z" transform="translate(-4 -1)"/></svg>