<svg xmlns="http://www.w3.org/2000/svg" width="73.294" height="73.294" viewBox="0 0 73.294 73.294"><defs><style>.a{fill:#1aa6b7;}</style></defs><path class="a" d="M68.383,1H32.918a5.918,5.918,0,0,0-5.911,5.911V22.478a22.85,22.85,0,0,0-11.048,4.53H1V49.469H16.045a26.071,26.071,0,0,0,10.962,3.446V68.383a5.918,5.918,0,0,0,5.911,5.911H68.383a5.918,5.918,0,0,0,5.911-5.911V6.911A5.918,5.918,0,0,0,68.383,1ZM29.172,50.651A23.7,23.7,0,0,1,17.55,47.591v-18.8a20.457,20.457,0,0,1,12.3-4.146H41.194a2.367,2.367,0,0,1-2.364,2.364H31.736a3.546,3.546,0,0,0,0,7.093H49.469a1.182,1.182,0,1,1,0,2.364H30.554v2.364H42.376a1.182,1.182,0,1,1,0,2.364H30.554v2.364h9.457a1.182,1.182,0,1,1,0,2.364H30.554v2.364h7.093a1.182,1.182,0,1,1,0,2.364Zm9.657-28.372V15.186h7.093v7.093ZM34.1,53.015h3.546a3.535,3.535,0,0,0,3.286-4.866A3.516,3.516,0,0,0,43.3,43.421,3.487,3.487,0,0,0,45.7,38.829h3.764a3.546,3.546,0,1,0,0-7.093H31.736a1.182,1.182,0,0,1,0-2.364h7.093a4.733,4.733,0,0,0,4.729-4.729h4.729V12.822H36.465v9.457H34.1V10.457H67.2V57.744H34.1ZM51.833,8.093V5.729H49.469V8.093H47.1V3.364H54.2V8.093ZM29.372,6.911a3.551,3.551,0,0,1,3.546-3.546H44.74V8.093H34.1a2.367,2.367,0,0,0-2.364,2.364V22.279H29.848c-.16,0-.318.017-.476.02ZM3.364,29.372H15.186V47.1H3.364ZM71.93,68.383a3.551,3.551,0,0,1-3.546,3.546H32.918a3.551,3.551,0,0,1-3.546-3.546V53.015h2.364v4.729A2.367,2.367,0,0,0,34.1,60.108H67.2a2.367,2.367,0,0,0,2.364-2.364V10.457A2.367,2.367,0,0,0,67.2,8.093H56.562V3.364H68.383A3.551,3.551,0,0,1,71.93,6.911Z" transform="translate(-1 -1)"/><path class="a" d="M48.457,53H41.364A2.367,2.367,0,0,0,39,55.364v2.364a2.367,2.367,0,0,0,2.364,2.364h7.093a2.367,2.367,0,0,0,2.364-2.364V55.364A2.367,2.367,0,0,0,48.457,53Zm-7.093,4.729V55.364h7.093l0,2.364Z" transform="translate(5.922 8.472)"/><path class="a" d="M50.093,30.911A5.918,5.918,0,0,0,44.182,25H43v2.364h1.182a3.546,3.546,0,0,1,0,7.093H43v2.364h1.182A5.918,5.918,0,0,0,50.093,30.911Z" transform="translate(6.651 3.372)"/><path class="a" d="M44.182,21H43v2.364h1.182a8.275,8.275,0,1,1,0,16.55H43v2.364h1.182a10.639,10.639,0,0,0,0-21.279Z" transform="translate(6.651 2.643)"/><path class="a" d="M43,45h2.364v2.364H43Z" transform="translate(6.651 7.015)"/><path class="a" d="M47,45h2.364v2.364H47Z" transform="translate(7.379 7.015)"/><path class="a" d="M39,45h2.364v2.364H39Z" transform="translate(5.922 7.015)"/><path class="a" d="M43,17H57.186v2.364H43Z" transform="translate(6.651 1.915)"/><path class="a" d="M43,13h2.364v2.364H43Z" transform="translate(6.651 1.186)"/><path class="a" d="M47,13h9.457v2.364H47Z" transform="translate(7.379 1.186)"/></svg>