<svg xmlns="http://www.w3.org/2000/svg" width="69.244" height="69.244" viewBox="0 0 69.244 69.244"><defs><style>.a{fill:#1aa6b7;}</style></defs><path class="a" d="M68.01,32.271a6.667,6.667,0,0,0-4.467,1.72V24.454A3.355,3.355,0,0,0,60.192,21.1a3.317,3.317,0,0,0-1.248.247,3.357,3.357,0,0,0-1.558-2.021,15.463,15.463,0,0,0-1.8-12.383A12.573,12.573,0,0,0,44.866,1,12.741,12.741,0,0,0,35.92,4.707l-.3.3-.3-.3A12.739,12.739,0,0,0,26.378,1,12.576,12.576,0,0,0,15.652,6.945a15.472,15.472,0,0,0-1.8,12.383,3.355,3.355,0,0,0-1.556,2.02,3.341,3.341,0,0,0-4.6,3.1v9.538a6.667,6.667,0,0,0-4.467-1.72A2.236,2.236,0,0,0,1,34.505l.007.123c.007.069.762,6.9,1.022,12.96a12.409,12.409,0,0,0,2.837,7.373l2.836,3.4V70.244H25.57V58.218A22.389,22.389,0,0,0,27.8,48.5V34.224L35.622,40.4l7.818-6.172V48.5a22.389,22.389,0,0,0,2.234,9.722V70.244H63.543V58.363l2.837-3.4a12.411,12.411,0,0,0,2.836-7.372c.26-6.057,1.015-12.891,1.022-12.96l.007-.122a2.236,2.236,0,0,0-2.234-2.234ZM17.546,8.13a10.354,10.354,0,0,1,8.832-4.9,10.49,10.49,0,0,1,7.367,3.052l1.877,1.877L37.5,6.286a10.49,10.49,0,0,1,7.367-3.052A10.354,10.354,0,0,1,53.7,8.13a13.359,13.359,0,0,1-3.044,17.552l-4.339,3.425-.125-.126a7.878,7.878,0,0,0-5.534-2.294h-.879l-.468-1.4a5.518,5.518,0,0,0,1.446-1.946h.6a3.284,3.284,0,0,0,3.2-3.351,3.436,3.436,0,0,0-.518-1.816l.48-1.79a4.614,4.614,0,0,0-2.9-5.454L36.886,9.205a6.439,6.439,0,0,0-7.352,2.189l-.269.357a3.281,3.281,0,0,0-2.676,3.221,12.074,12.074,0,0,0,.6,3.234,3.425,3.425,0,0,0-.5,1.779,3.283,3.283,0,0,0,3.2,3.351h.6a5.518,5.518,0,0,0,1.446,1.946l-.468,1.4h-.879a7.874,7.874,0,0,0-5.534,2.3l-.125.125-4.339-3.425A13.362,13.362,0,0,1,17.546,8.13ZM29.89,21.1a1.128,1.128,0,0,1,0-2.234h.159c0,.057-.011.114-.011.171V21.1Zm.732-4.467H29.89a3.05,3.05,0,0,0-.793.116,7.921,7.921,0,0,1-.275-1.78,1.042,1.042,0,0,1,1.042-1.042h.558l.9-1.2a4.289,4.289,0,0,1,4.8-1.428l4.734,1.721a2.388,2.388,0,0,1,1.566,2.237,2.347,2.347,0,0,1-.066.558l-.247.919a3.079,3.079,0,0,0-.756-.1H40.089c-2.845,0-6.422-2.062-6.458-2.082l-.6-.347-.577.379a5.342,5.342,0,0,0-1.835,2.051Zm10.584,2.234h.147a1.128,1.128,0,0,1,0,2.234h-.147Zm-8.935.171a3.074,3.074,0,0,1,.917-2.188A18.752,18.752,0,0,0,38.972,18.8v2.377a3.351,3.351,0,0,1-6.7,0ZM33.918,26.4a5.147,5.147,0,0,0,3.409,0l.381,1.144-2.085,2.316-2.085-2.316ZM9.935,68.01V63.543h13.4V68.01ZM25.57,48.5a20.133,20.133,0,0,1-2.116,8.963l-.117.237v3.614H9.935V57.554L6.582,53.53a10.164,10.164,0,0,1-2.321-6.039c-.245-5.682-.917-12.028-1.021-12.987A4.473,4.473,0,0,1,7.7,38.972v6.143l2.088,1.566a10.138,10.138,0,0,1,3.553,4.93l2.119-.707a12.369,12.369,0,0,0-4.331-6.01l-1.2-.9V24.454a1.117,1.117,0,1,1,2.234,0V40.089H14.4V22.22a1.091,1.091,0,0,1,.241-.669,15.356,15.356,0,0,0,1.992,3.315V40.089h2.234V27.138c.115.1.218.2.337.3l1.9,1.5V40.089h2.234V30.7L25.57,32.46ZM26.7,30.507a5.618,5.618,0,0,1,3.887-1.586h1.186L35.622,33.2l3.848-4.275h1.186a5.618,5.618,0,0,1,3.887,1.586l-8.92,7.043Zm21.205,37.5V63.543h13.4V68.01ZM66.984,47.492a10.166,10.166,0,0,1-2.32,6.038l-3.355,4.025v3.755h-13.4V57.7l-.117-.236A20.137,20.137,0,0,1,45.673,48.5V32.46L47.907,30.7v9.393h2.234V28.934l1.9-1.5c.118-.094.221-.2.337-.3V40.089h2.234V24.866A15.431,15.431,0,0,0,56.6,21.55a1.083,1.083,0,0,1,.242.67V40.089h2.234V24.454a1.117,1.117,0,1,1,2.234,0V44l-1.2.9a12.364,12.364,0,0,0-4.331,6.01l2.119.707a10.142,10.142,0,0,1,3.553-4.93l2.088-1.567V38.972A4.473,4.473,0,0,1,68,34.505c-.1.958-.776,7.3-1.02,12.987Z" transform="translate(-1 -1)"/></svg>