<svg xmlns="http://www.w3.org/2000/svg" width="73.294" height="73.294" viewBox="0 0 73.294 73.294"><defs><style>.a{fill:#1aa6b7;}</style></defs><g transform="translate(0)"><path class="a" d="M5,21H9.729v2.364H5Z" transform="translate(-0.272 2.643)"/><path class="a" d="M11,21h9.457v2.364H11Z" transform="translate(0.821 2.643)"/><path class="a" d="M5,25H21.55v2.364H5Z" transform="translate(-0.272 3.372)"/><path class="a" d="M74.294,32.918a20.081,20.081,0,0,0-6.443-14.713l.668-6.69-13.14,1.194V4.546A3.551,3.551,0,0,0,51.833,1H6.911A3.551,3.551,0,0,0,3.364,4.546V19.915A2.367,2.367,0,0,0,1,22.279V34.1a2.367,2.367,0,0,0,2.364,2.364V68.383A3.551,3.551,0,0,0,6.911,71.93h43.74a2.367,2.367,0,0,0,2.364,2.364h2.364a2.367,2.367,0,0,0,2.364-2.364V52.683a20.116,20.116,0,0,0,16.55-19.765ZM60.108,44.487a12.889,12.889,0,0,1-2.364.932V33.408l2.364-2.364ZM55.379,32.429V45.862c-.39.035-.783.06-1.182.06s-.792-.025-1.182-.06V31.247L45.922,38.34v4.6a13.1,13.1,0,0,1-3.217-3.953L60.074,21.62l6.036,6.1a12.974,12.974,0,0,1-3.638,15.225V25.336Zm-4.729,12.99a12.889,12.889,0,0,1-2.364-.932V39.319l2.364-2.364Zm-14.186-12.5A17.742,17.742,0,0,1,53.728,15.21l2.458,2.481A15.633,15.633,0,0,0,54.2,17.55,15.333,15.333,0,0,0,39.883,38.469l-1.8,1.8A17.6,17.6,0,0,1,36.465,32.918Zm4.729,0a12.972,12.972,0,0,1,16.7-12.458L41.736,36.615A12.943,12.943,0,0,1,41.194,32.918Zm24.689-18.79-.909,9.081L56.8,14.954ZM6.911,3.364H51.833a1.183,1.183,0,0,1,1.182,1.182v8.335a19.941,19.941,0,0,0-8.255,2.3H5.729V4.546A1.183,1.183,0,0,1,6.911,3.364ZM3.364,22.279H24.643V34.1H17.55v4.335a.411.411,0,0,1-.71.236L13.413,34.1H3.364ZM6.911,69.565a1.183,1.183,0,0,1-1.182-1.182V36.465h6.5l2.719,3.625a2.758,2.758,0,0,0,4.965-1.654V36.465h4.729A2.367,2.367,0,0,0,27.008,34.1V22.279a2.367,2.367,0,0,0-2.364-2.364H5.729V17.55H41.274a20,20,0,0,0-4.962,24.489L28.19,50.161l-8.233-8.233L7.3,53.319l1.582,1.757,10.988-9.889L28.19,53.5l9.352-9.352a20.122,20.122,0,0,0,13.109,8.529V69.565ZM55.379,71.93H53.015V52.955c.394.024.783.06,1.182.06s.788-.037,1.182-.06ZM54.2,50.651A17.72,17.72,0,0,1,39.26,42.435l1.719-1.719A15.354,15.354,0,1,0,67.2,24.739l.346-3.464A17.71,17.71,0,0,1,54.2,50.651Z" transform="translate(-1 -1)"/><path class="a" d="M10.546,12.093A3.546,3.546,0,1,0,7,8.546,3.551,3.551,0,0,0,10.546,12.093Zm0-4.729A1.182,1.182,0,1,1,9.364,8.546,1.183,1.183,0,0,1,10.546,7.364Z" transform="translate(0.093 -0.271)"/><path class="a" d="M18.546,12.093A3.546,3.546,0,1,0,15,8.546,3.551,3.551,0,0,0,18.546,12.093Zm0-4.729a1.182,1.182,0,1,1-1.182,1.182A1.183,1.183,0,0,1,18.546,7.364Z" transform="translate(1.55 -0.271)"/><path class="a" d="M26.546,12.093A3.546,3.546,0,1,0,23,8.546,3.551,3.551,0,0,0,26.546,12.093Zm0-4.729a1.182,1.182,0,1,1-1.182,1.182A1.183,1.183,0,0,1,26.546,7.364Z" transform="translate(3.007 -0.271)"/><path class="a" d="M44.829,55.261V45.8H42.465v9.457H40.1V43.44H37.736V55.261H35.372V48.168H28.279v7.093H25.915V47.679l-7.093-7.093V55.261H16.457V44.132L9.364,51.225v4.036H7v2.364H47.194V55.261ZM30.643,50.533h2.364v4.729H30.643Zm-9.457-4.239,2.364,2.364v6.6H21.186ZM11.729,52.2l2.364-2.364v5.421H11.729Z" transform="translate(0.093 6.211)"/></g></svg>