<svg xmlns="http://www.w3.org/2000/svg" width="73.722" height="73.784" viewBox="0 0 73.722 73.784"><defs><style>.a{fill:#1aa6b7;}</style></defs><g transform="translate(0 0)"><path class="a" d="M55.546,31.093A3.546,3.546,0,1,0,52,27.546,3.551,3.551,0,0,0,55.546,31.093Zm0-4.729a1.182,1.182,0,1,1-1.182,1.182A1.183,1.183,0,0,1,55.546,26.364Z" transform="translate(8.29 3.68)"/><path class="a" d="M71.864,31.083l2.858-1.66L71.2,23.278l-2.829,1.666-.008-3.318H61.309l.028,3.3.009.017-.017.009-2.858-1.67-3.117,5.44H34.1a4.733,4.733,0,0,0-4.729,4.729V61.819s0,.009,0,.015c-.078,0-.155-.017-.235-.017a3.482,3.482,0,0,0-2.247.848,29.185,29.185,0,0,0-8.158-17.881V42.857a5.17,5.17,0,0,0,4.729-5.171v-2.2L27.008,34.3v-.852a21.276,21.276,0,0,0-2.992-10.292,5.82,5.82,0,0,0,1.795-8.623h2.38V26.354h2.364V12.168H28.679l4.239-4.239,4.239,4.239H35.283V26.354h2.364V14.533h5.218L32.918,4.586l-8.56,8.56a5.846,5.846,0,0,0-3.238-.979H11.639a8.286,8.286,0,0,0-8.261,7.789A9.191,9.191,0,0,0,1,26.151v.491a12.131,12.131,0,0,0,5.07,9.852l3.2,2.29v6.592a7.1,7.1,0,0,0-5.911,6.987v7.093a2.367,2.367,0,0,0,2.364,2.364v4.658a7.048,7.048,0,0,0,2.111,5.036,7.205,7.205,0,0,0,5.12,2.128H32.922a5.915,5.915,0,0,0,5.907-5.911,3.5,3.5,0,0,0-.218-1.181h4.946v4.729H41.194v2.364H62.472V71.277H60.108V66.548h9.457a4.733,4.733,0,0,0,4.729-4.729V33.49l.428-.747ZM59.016,29.048l-.844-.489,1.167-2.038.8.468a2.34,2.34,0,0,0,2.241.057l.126-.07a2.36,2.36,0,0,0,1.166-2.032V23.99H66v.956A2.374,2.374,0,0,0,67.2,27l.014.007c.021.012.041.024.063.034l.028.014a2.33,2.33,0,0,0,2.234-.063l.8-.468L71.5,28.559l-.845.491a2.361,2.361,0,0,0,0,4.067l.845.491-1.167,2.038-.8-.468A2.361,2.361,0,0,0,66,37.222v.954H63.675V37.22A2.369,2.369,0,0,0,62.5,35.18a2.34,2.34,0,0,0-2.36,0l-.8.468-1.167-2.038.845-.491a2.36,2.36,0,0,0,0-4.067ZM24.591,64.182H15.186V61.818a2.367,2.367,0,0,0,2.364-2.364V52.361a7.051,7.051,0,0,0-1.35-4.147,5.511,5.511,0,0,0,1.449-1.079A26.816,26.816,0,0,1,24.591,64.182ZM21.1,33.777v3.909a2.854,2.854,0,0,1-2.854,2.854H14V42.9h2.364v2.019a3.069,3.069,0,0,1-2.115,1.455,7.053,7.053,0,0,0-2.614-1V33.937a2.352,2.352,0,0,0-.693-1.673L9.763,31.081A1.655,1.655,0,0,1,9.275,29.9a1.183,1.183,0,0,1,1.182-1.182h1.182V26.353A2.367,2.367,0,0,1,14,23.989h6.764a7.074,7.074,0,0,0,.949-.065,19.824,19.824,0,0,1,2.9,8.679ZM7.444,34.57a9.763,9.763,0,0,1-4.08-7.929v-.491a6.846,6.846,0,0,1,2.018-4.873l.346-.346v-.489a5.918,5.918,0,0,1,5.911-5.911h9.482a3.522,3.522,0,0,1,.946,6.914,4.813,4.813,0,0,1-1.3.177H14a4.733,4.733,0,0,0-4.729,4.729v.2A3.553,3.553,0,0,0,6.911,29.9a4,4,0,0,0,1.182,2.854l1.182,1.183v1.941ZM5.729,52.361a4.729,4.729,0,0,1,9.457,0v7.093l-9.457,0ZM36.465,67.729a3.549,3.549,0,0,1-3.543,3.546H12.959A4.888,4.888,0,0,1,9.467,69.8a4.659,4.659,0,0,1-1.375-3.32V61.818h4.729v2.364a2.367,2.367,0,0,0,2.364,2.364H26.315l2.042-2.04a1.144,1.144,0,0,1,1.773.288l.876,1.751H34.09l.011,0h1.188A1.183,1.183,0,0,1,36.465,67.729Zm21.279,3.548H45.922V66.548H57.744Zm11.822-7.093H34.089a2.366,2.366,0,0,1-2.353-2.363V59.455H71.93v2.364A2.367,2.367,0,0,1,69.565,64.184Zm2.364-7.093H31.736V33.447A2.367,2.367,0,0,1,34.1,31.083H57.809l-2.858,1.66,3.522,6.145,2.836-1.668V40.54h7.054l-.022-3.323,2.858,1.67.732-1.272Z" transform="translate(-1 0.143)"/><path class="a" d="M48.361,40.014a3.316,3.316,0,0,0-5.622,0l-.1.16L41.508,36.78a4.462,4.462,0,0,0-8.467,0l-1.677,5.032V29H29V50.279H56.19V47.915H53.3Zm-2,1.254,4.153,6.646H40.59l4.153-6.646a.987.987,0,0,1,1.615,0Zm-11.074-3.74a2.1,2.1,0,0,1,3.984,0l1.748,5.246L37.8,47.915H31.822Z" transform="translate(4.101 4.59)"/><path class="a" d="M52,41h8.275v2.364H52Z" transform="translate(8.29 6.776)"/><path class="a" d="M52,37h8.275v2.364H52Z" transform="translate(8.29 6.048)"/><path class="a" d="M35,29h4.729v2.364H35Z" transform="translate(5.194 4.59)"/><path class="a" d="M41,29h4.729v2.364H41Z" transform="translate(6.287 4.59)"/><path class="a" d="M37.8,27.083h2.364V8.168H38.293l4.239-4.239,4.239,4.239H44.9V27.083h2.364V10.533h5.218L42.533.586l-9.947,9.947H37.8Z" transform="translate(4.754 -0.586)"/><path class="a" d="M50.8,16.533V18.9h2.364V14.168H51.293l4.239-4.239,4.239,4.239H57.9V18.9h2.364V16.533h5.218L55.533,6.586l-9.947,9.947Z" transform="translate(7.122 0.507)"/></g></svg>