<svg xmlns="http://www.w3.org/2000/svg" xmlns:xlink="http://www.w3.org/1999/xlink" width="736" height="653" viewBox="0 0 736 653"><defs><style>.a,.q,.s,.t{fill:#fff;}.ac,.ad,.b,.c,.u,.v,.w,.x{fill:#1aa6b7;}.b{opacity:0.36;}.d{fill:#15909f;}.e{fill:#dd1265;}.f{fill:#ba0d5c;}.g{fill:#10e2c4;}.h{fill:#1aba9f;}.i{fill:#95d600;}.j{fill:#85af12;}.k{fill:#ffd112;}.l{fill:#ff9f00;}.m{fill:#d0f6ff;}.n{fill:#eb7722;}.o{fill:#a63914;}.p{fill:#ffe955;}.q{font-size:20px;font-family:Poppins-Regular, Poppins;}.r{fill:#ecf8f9;}.ab,.s,.u{font-size:5px;}.ac,.s,.t{font-family:Poppins-Light, Poppins;font-weight:300;}.s,.t,.u,.v,.w,.x{letter-spacing:0.02em;}.t{font-size:7px;}.u,.v{font-family:Poppins-SemiBold, Poppins;font-weight:600;}.v{font-size:11px;}.w{font-size:18px;}.w,.x{font-family:Poppins-Bold, Poppins;font-weight:700;}.x{font-size:22px;}.y{fill:none;stroke:#707070;}.aa,.ab,.z{fill:#707070;font-family:SegoeUI, Segoe UI;}.z{font-size:3px;}.aa{font-size:4px;}.ac{font-size:16px;}.ad{font-size:17px;font-family:Almarai-Regular, Almarai;}.ae{filter:url(#q);}.af{filter:url(#o);}.ag{filter:url(#m);}.ah{filter:url(#k);}.ai{filter:url(#i);}.aj{filter:url(#g);}.ak{filter:url(#e);}.al{filter:url(#c);}.am{filter:url(#a);}</style><filter id="a" x="0" y="251" width="456" height="360" filterUnits="userSpaceOnUse"><feOffset dy="3" input="SourceAlpha"/><feGaussianBlur stdDeviation="5" result="b"/><feFlood flood-opacity="0.129"/><feComposite operator="in" in2="b"/><feComposite in="SourceGraphic"/></filter><filter id="c" x="145" y="0" width="456" height="360" filterUnits="userSpaceOnUse"><feOffset dy="3" input="SourceAlpha"/><feGaussianBlur stdDeviation="5" result="d"/><feFlood flood-opacity="0.129"/><feComposite operator="in" in2="d"/><feComposite in="SourceGraphic"/></filter><filter id="e" x="269" y="284" width="467" height="369" filterUnits="userSpaceOnUse"><feOffset dy="3" input="SourceAlpha"/><feGaussianBlur stdDeviation="5" result="f"/><feFlood flood-opacity="0.129"/><feComposite operator="in" in2="f"/><feComposite in="SourceGraphic"/></filter><filter id="g" x="317" y="368" width="136" height="187" filterUnits="userSpaceOnUse"><feOffset dx="2" dy="2" input="SourceAlpha"/><feGaussianBlur stdDeviation="5" result="h"/><feFlood flood-opacity="0.161"/><feComposite operator="in" in2="h"/><feComposite in="SourceGraphic"/></filter><filter id="i" x="429" y="344" width="151" height="211" filterUnits="userSpaceOnUse"><feOffset dx="2" dy="2" input="SourceAlpha"/><feGaussianBlur stdDeviation="5" result="j"/><feFlood flood-opacity="0.161"/><feComposite operator="in" in2="j"/><feComposite in="SourceGraphic"/></filter><filter id="k" x="554" y="368" width="135" height="187" filterUnits="userSpaceOnUse"><feOffset dx="2" dy="2" input="SourceAlpha"/><feGaussianBlur stdDeviation="5" result="l"/><feFlood flood-opacity="0.161"/><feComposite operator="in" in2="l"/><feComposite in="SourceGraphic"/></filter><filter id="m" x="584" y="480" width="74" height="35" filterUnits="userSpaceOnUse"><feOffset dy="3" input="SourceAlpha"/><feGaussianBlur stdDeviation="3" result="n"/><feFlood flood-opacity="0.161"/><feComposite operator="in" in2="n"/><feComposite in="SourceGraphic"/></filter><filter id="o" x="462" y="474" width="81" height="37" filterUnits="userSpaceOnUse"><feOffset dy="3" input="SourceAlpha"/><feGaussianBlur stdDeviation="3" result="p"/><feFlood flood-opacity="0.161"/><feComposite operator="in" in2="p"/><feComposite in="SourceGraphic"/></filter><filter id="q" x="346" y="480" width="74" height="35" filterUnits="userSpaceOnUse"><feOffset dy="3" input="SourceAlpha"/><feGaussianBlur stdDeviation="3" result="r"/><feFlood flood-opacity="0.161"/><feComposite operator="in" in2="r"/><feComposite in="SourceGraphic"/></filter></defs><g transform="translate(-185 -1169)"><g transform="translate(0 19)"><g class="am" transform="matrix(1, 0, 0, 1, 185, 1150)"><rect class="a" width="426" height="330" rx="33" transform="translate(15 263)"/></g><g transform="translate(284 1497)"><path class="b" d="M121.934,60.967A60.967,60.967,0,1,1,60.967,0,60.966,60.966,0,0,1,121.934,60.967Zm0,0"/><path class="c" d="M121.934,159.245A60.967,60.967,0,1,1,8.021,129a60.985,60.985,0,0,0,105.892,0,60.679,60.679,0,0,1,8.021,30.245Zm0,0" transform="translate(0 -98.278)"/><path class="d" d="M138.032,377.7v0a61.236,61.236,0,0,1-22.165,23.232A60.994,60.994,0,0,1,30.738,377.7v0Zm0,0" transform="translate(-23.418 -287.749)"/><path class="e" d="M140.305,356.781v35.111a60.6,60.6,0,0,1-16.5-6.892V356.781Zm0,0" transform="translate(-94.323 -271.813)"/><path class="f" d="M166.7,356.781v35.111a60.086,60.086,0,0,1-8.247-2.727V356.781Zm0,0" transform="translate(-120.714 -271.813)"/><path class="g" d="M237.859,356.781v36.411a61.656,61.656,0,0,1-16.5,0V356.781Zm0,0" transform="translate(-168.642 -271.813)"/><path class="h" d="M264.25,356.781v36.411a61.266,61.266,0,0,1-8.25.554V356.781Zm0,0" transform="translate(-195.033 -271.813)"/><path class="i" d="M335.418,320.371v36.888a60.446,60.446,0,0,1-16.5,6.892V320.371Zm0,0" transform="translate(-242.97 -244.074)"/><path class="j" d="M361.8,320.371v36.888a60.521,60.521,0,0,1-8.25,4.165V320.371Zm0,0" transform="translate(-269.352 -244.074)"/><path class="k" d="M149.336,220.608v35.025l-10.26-10.259-20.783,20.781L92.61,253.818,67.412,271.7q-.444-.454-.876-.914-.46-.493-.914-.994L92.61,234.247l20.745,7.4,11-11-10.041-10.041Zm0,0" transform="translate(-49.993 -168.07)"/><path class="l" d="M152.262,220.609v35.025L142,245.375l-20.783,20.781L95.536,253.819,70.337,271.7q-.444-.454-.876-.914l27.881-26.752,22.2,9Zm0,0" transform="translate(-52.919 -168.07)"/><path class="a" d="M402.246,198.2a7.543,7.543,0,1,1-7.543-7.543A7.543,7.543,0,0,1,402.246,198.2Zm0,0" transform="translate(-294.957 -145.254)"/><path class="m" d="M426.375,198.206a7.543,7.543,0,0,1-7.543,7.543V190.664a7.543,7.543,0,0,1,7.543,7.542Zm0,0" transform="translate(-319.086 -145.257)"/><path class="n" d="M229.914,61.626a12.114,12.114,0,0,1-.1,1.559,11.813,11.813,0,0,1-2.342,5.654,11.942,11.942,0,0,1-2.208,2.2,11.768,11.768,0,0,1-5.651,2.342,11.587,11.587,0,0,1-1.355.1c-.069,0-.137,0-.206,0a11.949,11.949,0,0,1-1.559-.1,11.87,11.87,0,0,1-10.2-10.2,11.951,11.951,0,0,1,0-3.121,11.767,11.767,0,0,1,2.342-5.65,11.975,11.975,0,0,1,2.2-2.209,11.808,11.808,0,0,1,5.653-2.342,11.975,11.975,0,0,1,1.56-.1c.068,0,.137,0,.206,0a11.6,11.6,0,0,1,1.355.1,11.811,11.811,0,0,1,5.654,2.342,12.043,12.043,0,0,1,2.2,2.206,11.8,11.8,0,0,1,2.342,5.653,12,12,0,0,1,.1,1.562Zm0,0" transform="translate(-157.084 -37.911)"/><path class="k" d="M268.521,61.637a12.117,12.117,0,0,1-.1,1.559,11.813,11.813,0,0,1-2.342,5.654,11.942,11.942,0,0,1-2.208,2.2,11.768,11.768,0,0,1-5.651,2.342,11.585,11.585,0,0,1-1.355.1V49.777a11.588,11.588,0,0,1,1.355.1,11.809,11.809,0,0,1,5.654,2.342,12.009,12.009,0,0,1,2.2,2.2,11.806,11.806,0,0,1,2.342,5.653,12.171,12.171,0,0,1,.1,1.562Zm0,0" transform="translate(-195.691 -37.923)"/><path class="o" d="M235.045,69.086a9.608,9.608,0,0,1-.083,1.253,9.464,9.464,0,0,1-1.88,4.541,9.673,9.673,0,0,1-1.774,1.773,9.488,9.488,0,0,1-5.589,1.959c-.069,0-.137,0-.206,0a9.611,9.611,0,0,1-1.253-.083,9.53,9.53,0,0,1-8.194-8.194,9.538,9.538,0,0,1,0-2.508,9.468,9.468,0,0,1,1.88-4.54,9.7,9.7,0,0,1,1.772-1.774,9.467,9.467,0,0,1,4.542-1.88,9.611,9.611,0,0,1,1.253-.083c.069,0,.137,0,.206,0a9.495,9.495,0,0,1,5.591,1.959,9.714,9.714,0,0,1,1.772,1.772,9.475,9.475,0,0,1,1.88,4.542A9.607,9.607,0,0,1,235.045,69.086Zm0,0" transform="translate(-164.547 -45.372)"/><path class="n" d="M266.189,69.1a9.611,9.611,0,0,1-.083,1.253,9.464,9.464,0,0,1-1.88,4.541,9.674,9.674,0,0,1-1.774,1.773,9.487,9.487,0,0,1-5.589,1.959V59.566a9.521,9.521,0,0,1,5.591,1.96,9.686,9.686,0,0,1,1.772,1.772,9.471,9.471,0,0,1,1.88,4.542A9.606,9.606,0,0,1,266.189,69.1Zm0,0" transform="translate(-195.69 -45.381)"/><path class="k" d="M239.045,74.9a7.724,7.724,0,0,1-1.588,4.69,7.9,7.9,0,0,1-1.435,1.433,7.653,7.653,0,0,1-3.675,1.522,7.958,7.958,0,0,1-.809.063l-.206,0a7.907,7.907,0,0,1-1.013-.066,7.655,7.655,0,0,1-3.675-1.522,7.756,7.756,0,0,1-1.434-1.434,7.667,7.667,0,0,1-1.522-3.675,7.708,7.708,0,0,1,0-2.028,7.68,7.68,0,0,1,1.522-3.675,7.926,7.926,0,0,1,1.433-1.435,7.724,7.724,0,0,1,4.69-1.588c.069,0,.137,0,.206,0a7.959,7.959,0,0,1,.809.063,7.679,7.679,0,0,1,3.675,1.521,7.854,7.854,0,0,1,1.435,1.435,7.679,7.679,0,0,1,1.521,3.675A7.926,7.926,0,0,1,239.045,74.9Zm0,0" transform="translate(-170.365 -51.19)"/><path class="p" d="M264.371,74.916a7.724,7.724,0,0,1-1.588,4.69,7.9,7.9,0,0,1-1.435,1.433,7.653,7.653,0,0,1-3.675,1.522,7.957,7.957,0,0,1-.809.063V67.207a7.688,7.688,0,0,1,4.484,1.584,7.853,7.853,0,0,1,1.435,1.435A7.68,7.68,0,0,1,264.3,73.9,7.952,7.952,0,0,1,264.371,74.916Zm0,0" transform="translate(-195.691 -51.201)"/><path class="o" d="M247.046,83.313c-.388-.115-.657-.24-.657-.473,0-.2.159-.271.4-.271a1.623,1.623,0,0,1,.256.022,5.73,5.73,0,0,1,1.318.414.776.776,0,0,0,1.009-.375l.121-.256a.775.775,0,0,0-.409-1.053,5.859,5.859,0,0,0-.807-.248.775.775,0,0,1-.6-.754v-.053a.772.772,0,0,0-.631-.76.751.751,0,0,0-.144-.015.775.775,0,0,0-.774.775v.117a.791.791,0,0,1-.509.749,1.981,1.981,0,0,0-1.44,1.911c0,1.728,1.918,1.837,2.866,2.147.311.1.518.225.518.436,0,.231-.2.335-.518.335h0a4.391,4.391,0,0,1-1.823-.571.767.767,0,0,0-1.055.34l-.106.215a.77.77,0,0,0,.332,1.026,5.622,5.622,0,0,0,1.155.442.777.777,0,0,1,.582.75v.148a.775.775,0,0,0,.773.773.743.743,0,0,0,.144-.014.771.771,0,0,0,.632-.759v-.127a.766.766,0,0,1,.539-.737,1.958,1.958,0,0,0,1.558-1.933c0-1.7-1.743-1.915-2.728-2.2Zm0,0" transform="translate(-185.874 -60.561)"/><g transform="translate(40.844 3.59)"><path class="a" d="M252.191,164.389A1.19,1.19,0,0,1,251,163.2v-3.773a1.191,1.191,0,1,1,2.382,0V163.2A1.19,1.19,0,0,1,252.191,164.389Zm0,0" transform="translate(-232.068 -124.14)"/><path class="a" d="M252.191,21.229A1.191,1.191,0,0,1,251,20.038V16.265a1.191,1.191,0,1,1,2.382,0v3.773A1.191,1.191,0,0,1,252.191,21.229Zm0,0" transform="translate(-232.068 -15.074)"/><path class="a" d="M195.97,144.643a1.19,1.19,0,0,1-.842-2.033l2.669-2.666a1.191,1.191,0,1,1,1.683,1.685l-2.669,2.666A1.183,1.183,0,0,1,195.97,144.643Zm0,0" transform="translate(-189.236 -109.941)"/><path class="a" d="M297.2,43.413a1.191,1.191,0,0,1-.842-2.033l2.669-2.669a1.191,1.191,0,1,1,1.685,1.684l-2.669,2.669A1.19,1.19,0,0,1,297.2,43.413Zm0,0" transform="translate(-266.36 -32.817)"/><path class="a" d="M176.465,96.964h-3.77a1.191,1.191,0,1,1,0-2.382h3.77a1.191,1.191,0,0,1,0,2.382Zm0,0" transform="translate(-171.504 -75.647)"/><path class="a" d="M319.625,96.964h-3.77a1.191,1.191,0,0,1,0-2.382h3.77a1.191,1.191,0,1,1,0,2.382Zm0,0" transform="translate(-280.57 -75.647)"/><path class="a" d="M198.64,43.413a1.188,1.188,0,0,1-.843-.349L195.129,40.4a1.191,1.191,0,1,1,1.685-1.684l2.669,2.669a1.191,1.191,0,0,1-.842,2.033Zm0,0" transform="translate(-189.237 -32.817)"/><path class="a" d="M299.873,144.643a1.183,1.183,0,0,1-.841-.348l-2.669-2.666a1.191,1.191,0,0,1,1.683-1.685l2.669,2.666a1.19,1.19,0,0,1-.842,2.033Zm0,0" transform="translate(-266.362 -109.941)"/></g></g><g class="al" transform="matrix(1, 0, 0, 1, 185, 1150)"><rect class="a" width="426" height="330" rx="33" transform="translate(160 12)"/></g><g class="ak" transform="matrix(1, 0, 0, 1, 185, 1150)"><rect class="a" width="437" height="339" rx="33" transform="translate(284 296)"/></g><path class="c" d="M33,0H404a33,33,0,0,1,33,33V206a0,0,0,0,1,0,0H0a0,0,0,0,1,0,0V33A33,33,0,0,1,33,0Z" transform="translate(469 1446)"/><text class="q" transform="translate(639 1491)"><tspan x="0" y="0">Price Plan</tspan></text><g class="aj" transform="matrix(1, 0, 0, 1, 185, 1150)"><path class="a" d="M10,0H96a10,10,0,0,1,10,10V157a0,0,0,0,1,0,0H0a0,0,0,0,1,0,0V10A10,10,0,0,1,10,0Z" transform="translate(330 381)"/></g><g class="ai" transform="matrix(1, 0, 0, 1, 185, 1150)"><path class="a" d="M10,0H111a10,10,0,0,1,10,10V181a0,0,0,0,1,0,0H0a0,0,0,0,1,0,0V10A10,10,0,0,1,10,0Z" transform="translate(442 357)"/></g><g transform="translate(752 1531)"><g class="ah" transform="matrix(1, 0, 0, 1, -567, -381)"><path class="a" d="M10,0H95a10,10,0,0,1,10,10V157a0,0,0,0,1,0,0H0a0,0,0,0,1,0,0V10A10,10,0,0,1,10,0Z" transform="translate(567 381)"/></g></g><path class="r" d="M367.286,5566.666s-15.344,40.156-54.847,36.891S262,5626.767,262,5626.767H367.286Z" transform="translate(489.981 -3939.01)"/><path class="r" d="M383,5687.333s-22.418,30.882-67.816,27.139c-28.646-2.362-52.809-25.174-53.184-26.3v34.191H383Z" transform="translate(365 -4034.857)"/><path class="r" d="M262,5566.666s15.344,40.156,54.847,36.891,50.439,23.21,50.439,23.21H262Z" transform="translate(252.456 -3939.01)"/><g class="ag" transform="matrix(1, 0, 0, 1, 185, 1150)"><rect class="c" width="56" height="17" rx="8.5" transform="translate(593 486)"/></g><text class="s" transform="translate(794 1646)"><tspan x="0" y="0">Purchase </tspan></text><g class="af" transform="matrix(1, 0, 0, 1, 185, 1150)"><rect class="c" width="63" height="19" rx="9.5" transform="translate(471 480)"/></g><text class="t" transform="translate(670 1642)"><tspan x="0" y="0">Purchase </tspan></text><g class="ae" transform="matrix(1, 0, 0, 1, 185, 1150)"><rect class="c" width="56" height="17" rx="8.5" transform="translate(355 486)"/></g><text class="s" transform="translate(556 1646)"><tspan x="0" y="0">Purchase </tspan></text><text class="u" transform="translate(786 1548)"><tspan x="0" y="0">ADVANCED</tspan></text><text class="u" transform="translate(553 1548)"><tspan x="0" y="0">STANDARD </tspan></text><text class="v" transform="translate(669 1531)"><tspan x="0" y="0">BASIC </tspan></text><text class="w" transform="translate(550 1580)"><tspan x="0" y="0">$10</tspan></text><text class="x" transform="translate(672 1565)"><tspan x="0" y="0">$5</tspan></text><text class="w" transform="translate(786 1580)"><tspan x="0" y="0">$15</tspan></text><line class="y" x2="39" transform="translate(782.12 1558.934)"/><text class="z" transform="translate(566 1602)"><tspan x="-10.346" y="0">Up To 1 Exports</tspan></text><text class="z" transform="translate(685 1585)"><tspan x="-10.346" y="0">Up To 1 Exports</tspan></text><text class="z" transform="translate(802 1598)"><tspan x="-10.346" y="0">Up To 1 Exports</tspan></text><text class="aa" transform="translate(566 1611)"><tspan x="-20.917" y="0">Limited Coustomization</tspan></text><text class="ab" transform="translate(686 1599)"><tspan x="-26.146" y="0">Limited Coustomization</tspan></text><text class="aa" transform="translate(802 1607)"><tspan x="-20.917" y="0">Limited Coustomization</tspan></text><text class="aa" transform="translate(566 1619)"><tspan x="-12.805" y="0">30 day Validity</tspan></text><text class="ab" transform="translate(687 1612)"><tspan x="-16.006" y="0">30 day Validity</tspan></text><text class="aa" transform="translate(802 1615)"><tspan x="-12.805" y="0">30 day Validity</tspan></text><line class="y" x2="42" transform="translate(666.5 1539.521)"/><line class="y" x2="39" transform="translate(548.5 1558.934)"/><text class="ac" transform="translate(345 1657)"><tspan x="-68.464" y="0">We Offer Quick &amp; </tspan><tspan x="-71.872" y="25">Powerful Business </tspan><tspan x="-31.488" y="50">Solution</tspan></text><text class="ac" transform="translate(545 1713)"><tspan x="16.408" y="17">We Offer The Best Price plan &amp; </tspan><tspan x="81.944" y="42">Best Features </tspan></text><g transform="translate(395.942 1244.754)"><g transform="translate(0 5.32)"><path class="c" d="M9.591-.747V-6.459H21.108v-7H9.591v-5.344H22.26V-25.9H2.22V6.348H22.49V-.747Zm16.448-1.1H39.759v-5.2H26.038ZM69.367-18.928H63.59L56.73-7.7l-6.86-11.229H44.092V6.348h5.777v-14.7L56.4,2.376h.65L63.59-8.348v14.7h5.777ZM78.358-.513H91.176a10.5,10.5,0,0,0,.217-2.166c0-5.452-3.9-9.532-9.171-9.532a9.256,9.256,0,0,0-9.6,9.532c0,5.38,3.827,9.532,10,9.532A9.161,9.161,0,0,0,90.49,3.134L86.157.643a4.714,4.714,0,0,1-3.466,1.372C80.7,2.015,79.044,1.365,78.358-.513ZM78.25-4.557a3.727,3.727,0,0,1,3.936-2.852,3.717,3.717,0,0,1,3.827,2.852Zm26.792-7.655a6.175,6.175,0,0,0-5.163,2.2v-1.7H94.462V6.348h5.416V-3.51c0-2.564,1.372-3.719,3.358-3.719a2.978,2.978,0,0,1,3.141,3.286V6.348h5.416V-4.737C111.793-9.612,108.688-12.212,105.041-12.212Zm22.134.506v9.857c0,2.564-1.372,3.719-3.358,3.719a2.978,2.978,0,0,1-3.141-3.286V-11.706H115.26V-.621c0,4.874,3.105,7.474,6.752,7.474a6.175,6.175,0,0,0,5.163-2.2v1.7h5.416V-11.706Zm34.266,4.947a6.327,6.327,0,0,0,2.2-4.947c0-4.369-3.575-7.221-7.98-7.221H145.77V6.348h10.616c4.513,0,8.16-2.925,8.16-7.4A6.526,6.526,0,0,0,161.441-6.759Zm-5.777-6.752a2.113,2.113,0,0,1,2.2,2.239,2.133,2.133,0,0,1-2.2,2.239h-4.116v-4.477ZM156.386.932h-4.838V-3.907h4.838a2.284,2.284,0,0,1,2.383,2.419A2.284,2.284,0,0,1,156.386.932Zm21.7-12.638L174.692-.657l-4.008-11.049h-5.958l7.185,17.223c-.794,2.2-1.986,3-4.513,3v5.055c5.055.253,8.269-2.022,10.291-7.763l6.174-17.512Zm33.941-7.221H193.252v5.561h6.5V6.348h5.777V-13.367h6.5Zm5.055,5.633a3.283,3.283,0,0,0,3.25-3.25,3.283,3.283,0,0,0-3.25-3.25,3.283,3.283,0,0,0-3.25,3.25A3.283,3.283,0,0,0,217.082-13.295ZM214.374,6.348h5.416V-11.706h-5.416Zm19.317-20.581v-5.2c-5.994-.361-8.774,2.672-8.774,7.727H222.5v5.2h2.419V6.348h5.416V-6.507h3.358v-5.2h-3.358C230.334-13.8,231.67-14.414,233.692-14.234Z" transform="translate(-2.22 25.9)"/><path class="c" d="M15.864,1.445V2.562H4.712A9.3,9.3,0,0,1,2.252,2.3,2.368,2.368,0,0,1,.933,1.477,2.592,2.592,0,0,1,.52-.077a12.035,12.035,0,0,1,.154-1.7q.154-1.036.364-1.975l.971.049q-.016.113-.113.809A23.431,23.431,0,0,0,1.637-.368,1.812,1.812,0,0,0,1.92.716a1.612,1.612,0,0,0,.939.558,7.7,7.7,0,0,0,1.837.17H8.354a6.369,6.369,0,0,1-.437-2.735,7.465,7.465,0,0,1,.348-2.574A2.205,2.205,0,0,1,9.43-5.143a5.768,5.768,0,0,1,2.323-.372,20.034,20.034,0,0,1,2.234.113l.453.049v6.8ZM9.147-1.323a4.528,4.528,0,0,0,.6,2.768h3.448V-4.366q-1.1-.081-1.554-.081a3.165,3.165,0,0,0-1.554.308,1.607,1.607,0,0,0-.736.971A6.6,6.6,0,0,0,9.147-1.323ZM11.122-8.4h1.23v1.36h-1.23ZM21.934,1.445V2.562h-6.07V1.445h2.412V-5.531h1.246V1.445ZM17.256,3.856h1.23v1.36h-1.23Zm2.023,0h1.23v1.36H19.28Zm10.149-9.55a3.748,3.748,0,0,1,1.74.421A3.254,3.254,0,0,1,32.512-3.9a4.909,4.909,0,0,1,.526,2.4V2.562h-11.1V1.445h1.521V-9.06H24.7v7.089a11.844,11.844,0,0,1,2.12-2.7A3.743,3.743,0,0,1,29.428-5.693Zm-.243,1.117a3.129,3.129,0,0,0-2.177.979,7.906,7.906,0,0,0-1.667,2.3A5.257,5.257,0,0,0,24.7.846v.6h7.089V-1.517a3.482,3.482,0,0,0-.4-1.756,2.452,2.452,0,0,0-1-1A2.632,2.632,0,0,0,29.185-4.576ZM48.4,2.562H46.553v.647a3.032,3.032,0,0,1-.558,1.845A3.4,3.4,0,0,1,44.506,6.2a5.319,5.319,0,0,1-2.031.38,5.187,5.187,0,0,1-2.153-.437,3.77,3.77,0,0,1-1.538-1.214,2.944,2.944,0,0,1-.567-1.78,18.073,18.073,0,0,1,.194-2.072q.194-1.457.453-2.93l1.2.065q-.243,1.586-.421,2.986a18.574,18.574,0,0,0-.178,1.869,2.079,2.079,0,0,0,.4,1.246,2.57,2.57,0,0,0,1.076.85,3.694,3.694,0,0,0,1.505.3,3.3,3.3,0,0,0,2.031-.623,2.081,2.081,0,0,0,.834-1.772V-5.531h1.246V1.445H48.4ZM41.892-6.891h1.23v1.36h-1.23Zm12.075,1.2a3.89,3.89,0,0,1,2.913.971,4.569,4.569,0,0,1,.939,3.237V2.562H48.4V1.445h2.671a17.6,17.6,0,0,1-.227-2.833,17.674,17.674,0,0,1,.129-2.145,15.416,15.416,0,0,1,.291-1.724,5.89,5.89,0,0,1,1.133-.3A8.632,8.632,0,0,1,53.966-5.693ZM52.089-1.388q0,.793.073,1.578t.154,1.254h4.257V-1.5a3.308,3.308,0,0,0-.7-2.363,2.844,2.844,0,0,0-2.12-.712,5.552,5.552,0,0,0-1.408.162A16.738,16.738,0,0,0,52.089-1.388ZM72.208,1.445V2.562h-5.39a5.226,5.226,0,0,1-2.266-.4A2.4,2.4,0,0,1,63.362.87,6.45,6.45,0,0,1,63-1.533a6.874,6.874,0,0,1,.348-2.412A2.415,2.415,0,0,1,64.5-5.272a4.675,4.675,0,0,1,2.161-.421q.6,0,1.837.057t1.869.121v6.96ZM64.244-1.566A4.738,4.738,0,0,0,64.512.2a1.776,1.776,0,0,0,.866.947,3.746,3.746,0,0,0,1.651.3h2.088V-4.463q-1.424-.1-2.2-.1a2.619,2.619,0,0,0-2.072.7A3.515,3.515,0,0,0,64.244-1.566ZM65.507-8.4h1.23v1.36h-1.23Zm2.023,0h1.23v1.36H67.53ZM78.278,1.445V2.562h-6.07V1.445H74.62V-5.531h1.246V1.445ZM73.6,3.856h1.23v1.36H73.6Zm2.023,0h1.23v1.36h-1.23Zm6.313-9.388V2.562H78.278V1.445H80.69V-5.531ZM80.69-8.4h1.23v1.36H80.69Zm6.652,2.557a15.134,15.134,0,0,1,1.562.1q.914.1,1.513.21V1.558a8.557,8.557,0,0,1-.639,3.8,2.284,2.284,0,0,1-2.209,1.222,19.7,19.7,0,0,1-2.444-.243v-1.1a16.889,16.889,0,0,0,2.363.227,1.809,1.809,0,0,0,.915-.2,1.444,1.444,0,0,0,.558-.834,6.237,6.237,0,0,0,.21-1.861H86.792a2.375,2.375,0,0,1-2.339-1.117,6.333,6.333,0,0,1-.575-2.9A8.534,8.534,0,0,1,84.17-3.9a2.541,2.541,0,0,1,1.052-1.441A3.877,3.877,0,0,1,87.342-5.839ZM85.125-1.485A4.611,4.611,0,0,0,85.545.627a1.743,1.743,0,0,0,1.716.817h1.91V-4.609a12.044,12.044,0,0,0-1.521-.113,2.77,2.77,0,0,0-1.538.364,1.908,1.908,0,0,0-.769,1.068A6.215,6.215,0,0,0,85.125-1.485Zm12.8,4.047H95.9V2.74q0,3.852-2.671,3.852-.259,0-.477-.016t-.38-.032l-.34-.032V5.41q.809.065,1.02.065a1.323,1.323,0,0,0,1.206-.639,3.394,3.394,0,0,0,.4-1.789V-5.515H95.9v6.96h2.023ZM104,1.445V2.562h-6.07V1.445h2.412V-5.531h1.246V1.445ZM99.336-8.4h1.23v1.36h-1.23Zm2.023,0h1.23v1.36h-1.23Zm13.467,9.841V2.562H104V1.445h7.268V-.9a3.653,3.653,0,0,0-.364-1.683,1.283,1.283,0,0,0-1.206-.728h-4.386l-.825-1.117.842-1.651a11.328,11.328,0,0,1,.882-1.416q.591-.834,1.19-1.562l.89.5q-.745,1.117-1.117,1.724t-.68,1.206l-.615,1.2h3.917a2.3,2.3,0,0,1,2.064.987,4.542,4.542,0,0,1,.656,2.557V1.445Zm3.237-10.5V2.562h-3.237V1.445h1.991V-9.06Zm9.76,0V2.562h-7.656V1.445h2.072v-8.32h1.246v8.32h3.108V-9.06Zm-3.318,15.6-3.3.647-.146-.518.777-.21a1.471,1.471,0,0,1-.129-2.177,1.453,1.453,0,0,1,1.084-.429,1.857,1.857,0,0,1,.7.129,1.964,1.964,0,0,1,.486.259l-.162.615a1.143,1.143,0,0,0-.3-.162,1.188,1.188,0,0,0-.445-.081.917.917,0,0,0-.688.275.9.9,0,0,0-.267.647.878.878,0,0,0,.372.745l1.845-.486Zm6.07-15.6h1.246V2.562h-1.246Zm11.2,3.367a3.89,3.89,0,0,1,2.913.971,4.569,4.569,0,0,1,.939,3.237V2.562h-5.212q-1.8,0-1.8,2.217a15.857,15.857,0,0,0,.437,3.043L138,7.854a18.349,18.349,0,0,1-.5-3.529,3.469,3.469,0,0,1,.4-1.821,2.089,2.089,0,0,1,1.012-.882,16.137,16.137,0,0,1-.259-3.011,17.675,17.675,0,0,1,.129-2.145,15.417,15.417,0,0,1,.291-1.724,5.89,5.89,0,0,1,1.133-.3A8.632,8.632,0,0,1,141.776-5.693Zm2.606,7.138V-1.5a3.308,3.308,0,0,0-.7-2.363,2.844,2.844,0,0,0-2.12-.712,5.551,5.551,0,0,0-1.408.162,16.738,16.738,0,0,0-.259,3.027q0,.793.073,1.578t.154,1.254Zm6.442,0V2.562h-2.768V-9.06H149.3v10.5Zm9.922,0V2.562h-1.7a7.328,7.328,0,0,1-1.651-.194,6.64,6.64,0,0,1-1.538-.55,7.6,7.6,0,0,1-1.513.542,6.686,6.686,0,0,1-1.611.2h-1.91V1.445h1.861a5.563,5.563,0,0,0,1.975-.372,7.582,7.582,0,0,1-1.991-2.25,5.068,5.068,0,0,1-.777-2.282l-.049-1.149a8.612,8.612,0,0,1,4-1.084,8.871,8.871,0,0,1,4.03,1.084l-.049,1.149a4.508,4.508,0,0,1-.356,1.432A7.2,7.2,0,0,1,158.52-.4a7.349,7.349,0,0,1-1.465,1.457,5.275,5.275,0,0,0,1.975.388Zm-7.624-5.422a4.509,4.509,0,0,0,.745,2.485,6.428,6.428,0,0,0,1.991,1.95A6.632,6.632,0,0,0,157.848-1.5a4.453,4.453,0,0,0,.761-2.476,8.091,8.091,0,0,0-2.752-.6A8.168,8.168,0,0,0,153.122-3.978Zm20.249,5.422V2.562H160.746V1.445h1.521V-9.06h1.246v7.089a11.845,11.845,0,0,1,2.12-2.7,3.743,3.743,0,0,1,2.606-1.02,3.748,3.748,0,0,1,1.74.421A3.254,3.254,0,0,1,171.323-3.9a4.909,4.909,0,0,1,.526,2.4V1.445ZM168-4.576a3.129,3.129,0,0,0-2.177.979,7.906,7.906,0,0,0-1.667,2.3,5.257,5.257,0,0,0-.639,2.145v.6H170.6V-1.517a3.482,3.482,0,0,0-.4-1.756,2.452,2.452,0,0,0-1-1A2.632,2.632,0,0,0,168-4.576Zm8.611-4.484V2.562h-3.237V1.445h1.991V-9.06Zm2.913,0h1.246V2.562h-1.246Zm16.121,10.5V2.562h-5.39a5.225,5.225,0,0,1-2.266-.4A2.4,2.4,0,0,1,186.8.87a6.45,6.45,0,0,1-.364-2.4,6.874,6.874,0,0,1,.348-2.412,2.415,2.415,0,0,1,1.149-1.327,4.675,4.675,0,0,1,2.161-.421q.6,0,1.837.057t1.869.121v6.96Zm-7.964-3.011A4.738,4.738,0,0,0,187.946.2a1.776,1.776,0,0,0,.866.947,3.746,3.746,0,0,0,1.651.3h2.088V-4.463q-1.424-.1-2.2-.1a2.619,2.619,0,0,0-2.072.7A3.515,3.515,0,0,0,187.679-1.566ZM188.942-8.4h1.23v1.36h-1.23Zm2.023,0h1.23v1.36h-1.23Zm15.911,9.841V2.562h-.518a1.5,1.5,0,0,1-.656-.17,2.378,2.378,0,0,1-.639-.461v.631h-9.42V1.445h2.671a17.6,17.6,0,0,1-.227-2.833,17.672,17.672,0,0,1,.13-2.145,15.418,15.418,0,0,1,.291-1.724,5.89,5.89,0,0,1,1.133-.3,8.632,8.632,0,0,1,1.57-.138,3.89,3.89,0,0,1,2.913.971,4.569,4.569,0,0,1,.939,3.237V.83a1.624,1.624,0,0,0,1.295.615Zm-7.543-2.833q0,.793.073,1.578t.154,1.254h4.257V-1.5a3.308,3.308,0,0,0-.7-2.363A2.844,2.844,0,0,0,201-4.576a5.551,5.551,0,0,0-1.408.162A16.74,16.74,0,0,0,199.333-1.388Zm11.2-4.144V2.562h-3.658V1.445h2.412V-5.531Zm1.036-2.234-3.3.647-.146-.518.777-.21A1.425,1.425,0,0,1,208.349-9a1.416,1.416,0,0,1,.421-1.028,1.453,1.453,0,0,1,1.084-.429,1.857,1.857,0,0,1,.7.129,1.965,1.965,0,0,1,.486.259l-.162.615a1.143,1.143,0,0,0-.3-.162,1.188,1.188,0,0,0-.445-.081.917.917,0,0,0-.688.275.9.9,0,0,0-.267.647.878.878,0,0,0,.372.745l1.845-.486Zm4.484,9.21V2.562h-2.768V-9.06h1.246v10.5Zm8.384-6.8V2.562h-8.384V1.445h2.3a6.369,6.369,0,0,1-.437-2.735,7.465,7.465,0,0,1,.348-2.574,2.2,2.2,0,0,1,1.165-1.279,5.768,5.768,0,0,1,2.323-.372,20.034,20.034,0,0,1,2.234.113Zm-5.293,4.03a4.528,4.528,0,0,0,.6,2.768h3.448V-4.366q-1.1-.081-1.554-.081a3.165,3.165,0,0,0-1.554.308,1.607,1.607,0,0,0-.736.971A6.6,6.6,0,0,0,219.145-1.323Zm.728-7.073h1.23v1.36h-1.23Zm2.023,0h1.23v1.36H221.9Z" transform="translate(3.589 58.323)"/></g><g transform="translate(250.571 0)"><g transform="translate(0)"><path class="c" d="M456.386,0V42.3H420.806a26.233,26.233,0,0,0-11.56,2.629,28.457,28.457,0,0,0-9.326,7.156V0Z" transform="translate(-386.899)"/><path class="c" d="M448.83,96.319v7.694a9.2,9.2,0,0,1-.533,3.2,7.827,7.827,0,0,1-1.546,2.586,7.364,7.364,0,0,1-2.415,1.765,7.225,7.225,0,0,1-3.061.645H403.15c.2-.395.4-.789.6-1.189q.864-1.69,1.8-3.562A21.989,21.989,0,0,1,412.39,99.4a16.652,16.652,0,0,1,9.934-3.093h26.5Z" transform="translate(-388.407 -44.955)"/><path class="c" d="M380.88,13.1l1.536-1.546-6.2,6.2a2.447,2.447,0,0,0-.715,1.728V72.645h3.956v-56.1a4.89,4.89,0,0,1,1.424-3.45Z" transform="translate(-375.5 -5.391)"/></g></g></g><text class="ad" transform="translate(376 1356)"><tspan x="3.322" y="15">We strive to provide the best through our services</tspan><tspan x="9.722" y="40">And our products in proportion to our customers</tspan></text></g></g></svg>