<svg xmlns="http://www.w3.org/2000/svg" xmlns:xlink="http://www.w3.org/1999/xlink" width="823" height="708" viewBox="0 0 823 708"><defs><style>.a,.d,.m,.n{fill:#fff;}.a{stroke:#707070;}.b,.k,.r,.s,.t{fill:none;}.c{clip-path:url(#a);}.e{fill:url(#b);}.f{fill:url(#c);}.g{clip-path:url(#d);}.h,.i,.p{fill:#333;}.h{font-size:5px;font-family:Montserrat-SemiBold, Montserrat;font-weight:600;}.j{opacity:0.53;}.k,.r,.t{stroke:#fff;}.k{stroke-linecap:round;stroke-linejoin:round;}.l{fill:#1aa6b7;}.m{font-size:31px;}.m,.n{font-family:SegoeUI, Segoe UI;}.n{font-size:10px;}.o{letter-spacing:-0.009em;}.p{font-size:15px;font-family:SegoeUI-Bold, Segoe UI;font-weight:700;}.q{letter-spacing:0.009em;}.r,.s,.t{stroke-miterlimit:10;}.s{stroke:#2c2c2c;}.t{stroke-width:2px;}.u{fill:#e57966;}.v{fill:#d5d5d5;}.w{fill:#110239;}.x{fill:#36c;}.y{fill:#2135ad;}.z{fill:#8a8a8a;opacity:0.68;}.aa{fill:#f88667;}</style><clipPath id="a"><rect class="a" width="823" height="708" transform="translate(1097 238)"/></clipPath><linearGradient id="b" y1="0.5" x2="1" y2="0.5" gradientUnits="objectBoundingBox"><stop offset="0" stop-color="#1a1a1a"/><stop offset="1" stop-color="#333"/></linearGradient><linearGradient id="c" x1="-0.194" y1="-0.269" x2="1.651" y2="1.778" gradientUnits="objectBoundingBox"><stop offset="0" stop-color="#4d4d4d"/><stop offset="1" stop-color="#333"/></linearGradient><clipPath id="d"><path class="b" d="M315.4,132.222V666.908a21.352,21.352,0,0,1-21.393,21.352H74.062A21.352,21.352,0,0,1,52.71,666.908V132.222A21.352,21.352,0,0,1,74.062,110.87H152.6a10.375,10.375,0,0,1,9.939,7.138,22.7,22.7,0,0,0,43.077,0,10.375,10.375,0,0,1,9.939-7.138h78.456A21.352,21.352,0,0,1,315.4,132.222Z" transform="translate(-52.71 -110.87)"/></clipPath></defs><g class="c" transform="translate(-1097 -238)"><rect class="d" width="12" height="349" rx="6" transform="translate(1991.098 387.117) rotate(41)"/><rect class="d" width="12" height="349" rx="6" transform="translate(2080.098 346.117) rotate(41)"/><rect class="d" width="12" height="44" rx="6" transform="translate(1748.867 668.096) rotate(41)"/><g transform="translate(1106.549 315.869)"><g transform="translate(0 0)"><g transform="translate(0 0)"><rect class="e" width="289.234" height="603.866" rx="28" transform="translate(0 0)"/><ellipse class="f" cx="8.362" cy="8.362" rx="8.362" ry="8.362" transform="translate(136.245 10.645)"/><g class="g" transform="translate(13.28 13.238)"><path class="d" d="M315.4,132.222V666.908a21.352,21.352,0,0,1-21.393,21.352H74.062A21.352,21.352,0,0,1,52.71,666.908V132.222A21.352,21.352,0,0,1,74.062,110.87H152.6a10.375,10.375,0,0,1,9.939,7.138,22.7,22.7,0,0,0,43.077,0,10.375,10.375,0,0,1,9.939-7.138h78.456A21.352,21.352,0,0,1,315.4,132.222Z" transform="translate(-52.71 -110.87)"/><text class="h" transform="translate(17.949 16.413)"><tspan x="0" y="0">16:45</tspan></text><ellipse class="i" cx="0.975" cy="0.975" rx="0.975" ry="0.975" transform="translate(213.227 17.762)"/><path class="i" d="M159.6,119.22h0a3.2,3.2,0,0,0-4.42,0l-.145.145-.187.187a.622.622,0,0,0,.871.871l.332-.332a2.075,2.075,0,0,1,2.78,0l.249.228a.624.624,0,0,0,.892-.871Z" transform="translate(56.951 -102.848)"/><path class="i" d="M162.053,119.056l-.208-.208h0l-.166-.166h0a5.333,5.333,0,0,0-7.2.166h0l-.373.374a.56.56,0,0,0,.788.788l.374-.373h0a4.15,4.15,0,0,1,5.81,0l.291.291a.56.56,0,0,0,.788-.788Z" transform="translate(56.154 -103.888)"/><path class="i" d="M164.206,124.036h0a.726.726,0,0,1-.726-.726v-5.623a.726.726,0,0,1,.726-.726h0a.726.726,0,0,1,.726.726v5.582a.726.726,0,0,1-.726.768Z" transform="translate(66.368 -104.323)"/><path class="i" d="M162.836,122.714h0a.726.726,0,0,1-.726-.726v-3.071a.726.726,0,0,1,.726-.726h0a.726.726,0,0,1,.726.726v3.029a.726.726,0,0,1-.726.768Z" transform="translate(64.895 -103.001)"/><path class="i" d="M161.456,122.1h0a.726.726,0,0,1-.726-.726v-1.888a.726.726,0,0,1,.726-.726h0a.726.726,0,0,1,.726.726v1.847a.726.726,0,0,1-.726.768Z" transform="translate(63.412 -102.388)"/><path class="i" d="M160.106,121.542h0a.726.726,0,0,1-.726-.726v-.809a.726.726,0,0,1,.726-.726h0a.726.726,0,0,1,.726.726v.768a.726.726,0,0,1-.726.768Z" transform="translate(61.96 -101.829)"/><path class="i" d="M169.921,117.333v-.643h-1.577v.623H166.58v6.474a.622.622,0,0,0,.685.54h3.756a.622.622,0,0,0,.685-.539v-6.453Zm-2.863.457h4.15v2.22h-4.15Z" transform="translate(69.7 -104.613)"/><g class="j" transform="translate(-7.927 535.973)"><rect class="i" width="275.539" height="42.392"/></g><ellipse class="k" cx="5.623" cy="5.623" rx="5.623" ry="5.623" transform="translate(120.143 551.784)"/><path class="k" d="M153.925,376.79l-7.055,5.623,7.055,5.6" transform="translate(48.512 174.994)"/><line class="k" y2="11.226" transform="translate(49.095 551.784)"/><line class="k" y2="11.226" transform="translate(54.801 551.784)"/><line class="k" y2="11.226" transform="translate(60.528 551.784)"/><path class="l" d="M222.212,366.855H120.178A25.758,25.758,0,0,1,94.42,341.1h0a25.758,25.758,0,0,1,25.758-25.758H222.212A25.758,25.758,0,0,1,247.97,341.1h0A25.758,25.758,0,0,1,222.212,366.855Z" transform="translate(-39.868 98.201)"/><text class="m" transform="translate(99.121 445.95)"><tspan x="0" y="0">scan</tspan></text><text class="n" transform="translate(112.133 480.925)"><tspan x="0" y="0">can</tspan><tspan class="o" y="0">c</tspan><tspan y="0">el</tspan></text><text class="p" transform="translate(97.297 58.496)"><tspan x="0" y="0">QR </tspan><tspan class="q" y="0">S</tspan><tspan y="0">can</tspan></text><line class="r" x1="9.67" transform="translate(24.962 56.461)"/><path class="s" d="M69.782,145.755l-5.042-5.063,5.042-5.042" transform="translate(-39.778 -84.231)"/><rect class="d" width="164.382" height="164.381" transform="translate(53.41 178.222)"/><path class="i" d="M158.184,252.68h6.889v13.7H171.9v-13.55h7.18l-.124-.124v6.7h7.055v-6.7l-.124.124h6.868v13.612l6.827.332v6.619l-6.785.291v13.778l.124-.124H179.183l-.394-6.993h-6.474l-.457-6.474h-6.785V280.3l-6.661.394-.373,6.37h-6.6l-.311-6.391-6.951-.456v-6.453h-6.515l-.477,6.868H130.42v6.806H116.995v7.1h13.3v6.806H116.58v6.889l.125-.124h-6.91V280.4l-.124.125h7.055v-20.9l-.125.124,7.034-.124v6.723h6.578v-6.6h-6.7v-27.8h-6.93l.125.124V218.464h6.619l.436,6.391h6.474l.415-6.495,6.495-.373.457-6.536h6.37v13.425l-6.661.394v6.785l.125-.124h-6.7v20.75h6.681v13.633h6.578V252.8H137.33v-6.7h20.916v6.681h-6.723v6.578h6.6Zm-6.661,14.089v6.516h6.432v-6.516Zm34.238,0h-6.474v6.391h6.474Z" transform="translate(8.522 -2.746)"/><path class="i" d="M185.613,271.923v6.827l6.744.394v6.516h-27.39v-6.412h-6.785l-.394,6.432H137.411l-.394-6.432h-6.578l-.332,6.432h-6.6V271.965H116.35l.124.124v-7.055l-.124.124h6.806l.394-7.055h6.764v13.612h6.806V258h7.034v6.7H150.9V258h7.034v13.612h6.806V258l7.034.124-.124-.124v7.055H178.7l-.124-.124.124,7.034h-6.723v6.578h6.6V271.9l7.034.145ZM150.9,278.75V272.3h-6.37v6.453Z" transform="translate(15.703 47.295)"/><path class="i" d="M131.073,249.422H83.12V201.49h47.953Zm-6.806-41.043H90.175v34.092h34.092Z" transform="translate(-20.019 -13.453)"/><path class="i" d="M177.886,249.422H129.85V201.49h48.036Zm-6.91-6.93V208.4H136.76v34.092Z" transform="translate(30.216 -13.453)"/><path class="i" d="M131.113,248.2v47.932H83.18V248.2Zm-6.931,6.848H90.028V289.14h34.155Z" transform="translate(-19.955 36.76)"/><path class="i" d="M127.563,255.451H93.16v-6.7l6.432-.311V234.785h7.18l-.125-.125v6.93H113.7v6.682h6.806V241.59h6.93v13.986Z" transform="translate(-9.226 22.205)"/><path class="i" d="M103.224,249.146v-6.765l-6.744-.394v-6.64h27.286v-13.9h7.179l-.124-.125v27.826l.124-.125h-6.827l-.394-6.578h-13.57v6.682L103.1,249Z" transform="translate(-5.657 7.864)"/><path class="i" d="M96.783,248.767V235.155H89.935l-.27,6.225H83.15V228.1H103.3v20.543h-6.64Z" transform="translate(-19.987 15.153)"/><path class="i" d="M123.358,268.29V281.9H109.85V261.5h6.7l-.125-.124v7.055h7.055Z" transform="translate(8.716 50.928)"/><path class="i" d="M156.911,251.36v7.034l.125-.125H149.98v7.055l.124-.124H143.05l.124.124V251.464h13.861Z" transform="translate(44.406 40.157)"/><path class="i" d="M96.68,238v13.633H83.13v-6.515h6.495v-6.993H96.8Z" transform="translate(-20.008 25.795)"/><path class="i" d="M129.55,214.908h-6.37V201.42h6.37Z" transform="translate(23.045 -13.529)"/><path class="i" d="M123,221.434h6.7v6.6h-6.578V221.31Z" transform="translate(22.852 7.853)"/><path class="i" d="M143.184,234.862v-6.7h6.806v6.7l.124-.124H143.06Z" transform="translate(44.416 15.217)"/><path class="i" d="M149.73,248.166h6.785v6.806h-6.7l.125.125V248Z" transform="translate(51.587 36.545)"/><path class="i" d="M113.166,265.117V258l-.125.124h6.931v6.93l.124-.124H113Z" transform="translate(12.102 47.295)"/><path class="i" d="M122.952,201.46v6.432H116.54V201.46Z" transform="translate(15.907 -13.485)"/><path class="i" d="M109.81,208.08h6.432V214.6H109.81Z" transform="translate(8.673 -6.369)"/><path class="i" d="M153.32,258v7.034l.124-.125H146.39l.124.125V258l-.124.124h7.055Z" transform="translate(47.996 47.295)"/><path class="i" d="M149.73,261.494h6.785V268.3h-6.7l.125.124V261.37Z" transform="translate(51.587 50.918)"/><path class="i" d="M122.921,214.594H116.53V208.12h6.391Z" transform="translate(15.897 -6.326)"/><path class="i" d="M149.73,254.847h6.785v6.744h-6.7l.125.125V254.66Z" transform="translate(51.587 43.705)"/><path class="i" d="M136.755,265.142H129.7V251.53h7.055Z" transform="translate(30.054 40.34)"/><path class="i" d="M123.2,248.14h6.432v6.412H123.2Z" transform="translate(23.067 36.695)"/><path class="i" d="M143.107,248.22v6.225H136.55V248.22Z" transform="translate(37.418 36.782)"/><path class="i" d="M130.117,261.562H123v-6.7h7.055Z" transform="translate(22.852 43.919)"/><path class="i" d="M143.435,261.562H136.38v-6.7h7.055Z" transform="translate(37.235 43.919)"/><path class="i" d="M103,241.725V234.67h7.055v7.055Z" transform="translate(1.352 22.215)"/><path class="i" d="M110,228.5H89.81V208.1H110Z" transform="translate(-12.827 -6.347)"/><path class="i" d="M156.761,228.4H136.53V208.17h20.231Z" transform="translate(37.397 -6.272)"/><path class="i" d="M89.73,274.966V254.88h20.4v20.086Z" transform="translate(-12.913 43.941)"/><path class="t" d="M110.4,189H70.75v38.284" transform="translate(-33.317 -26.88)"/><path class="t" d="M145.8,303.164h39.674V264.88" transform="translate(47.362 54.691)"/><path class="t" d="M145.8,189h39.674v38.284" transform="translate(47.362 -26.88)"/><path class="t" d="M110.4,303.164H70.75V264.88" transform="translate(-33.317 54.691)"/></g></g></g></g><g transform="translate(1435.726 335.862)"><path class="u" d="M148.655,61.757c-6.069-5.51-17.489-19.805-23.239-25.635-8.545,11.819-19.326,42.086-21.562,40.888A131.447,131.447,0,0,1,79.9,55.848a52.863,52.863,0,0,1-2.875-7.986,35.926,35.926,0,0,0-1.358-3.753,37.7,37.7,0,0,1-2.156-3.993c0-1.2-.719-7.028-2.476-7.986s-1.917.479-2.316,1.6.559,3.753.878,5.271.719,3.274,0,3.913-2.4-2.715-2.715-3.434a12.219,12.219,0,0,1-1.118-3.514,38.8,38.8,0,0,1-.4-4.153V25.182c0-1.358,0-2.4-1.437-2.556s-1.517,2.4-1.6,3.434a31.947,31.947,0,0,1,0,3.354c0,.719,0,2.316-.479,2.8a16.85,16.85,0,0,1-.878-4.951c0-1.038,0-6.868-1.837-6.868s-2.156,4.233-2,5.989a15.173,15.173,0,0,0,.639,3.354c0,.479.639,2.875.4,2.635C56.5,31.011,56.817,27.5,56.5,25.581s-1.038-4.871-2.715-2.875a4.073,4.073,0,0,0-.559,2.955,15.335,15.335,0,0,0,.958,4.792,12.218,12.218,0,0,1,.559,3.194c-1.358-.878-1.917-5.989-3.674-5.91s-1.278,2.236-1.118,2.955a53.586,53.586,0,0,0,7.108,15.493A156.688,156.688,0,0,0,66.879,61.2c5.031,6.868,34.659,46.239,40.649,51.749,14.455,13.177,27.552-36.336,42.086-50.95Z" transform="translate(-49.767 97.501)"/><path class="v" d="M56.86,70.96c3.194-7.507,18.927-38.253,33.062-51.03l17.729,6.948c7.986,9.743-2.156,32.822-5.351,35.458S89.123,86.293,86.328,89.168C73.391,81.262,56.86,70.96,56.86,70.96Z" transform="translate(-0.218 94.287)"/><path class="w" d="M70.173,62.76l11.979-3.913a2.076,2.076,0,0,0,1.118-2.875L69.534,22.511A3.115,3.115,0,0,0,65.7,20.275L51.566,26.824c-1.278.559-1.517,2.316-.639,3.993L66.9,61.562a2.635,2.635,0,0,0,3.274,1.2Z" transform="translate(-45.315 95.939)"/><path class="u" d="M74.877,13.16l25.4,3.993A58.138,58.138,0,0,0,104.106,59S85.818,78.8,73.12,73.534a15.014,15.014,0,0,1-8.545-19.326S78.311,43.187,74.877,13.16Z" transform="translate(46.771 46.992)"/><path class="w" d="M129.452,73.229s6.868,27.152,2.955,31.944-60.853,14.135-66.363,9.663S62.29,101.259,74.03,96.388s19.246-2.556,26.913-7.028,3.833-16.85,3.833-16.85Z" transform="translate(42.987 461.609)"/><path class="w" d="M125.885,72.908s1.358,34.1-3.194,37.853-62.37,4.632-67.082-.639-2-12.857,9.743-15.493,18.368,0,26.513-3.753,10.7-19.007,10.7-19.007Z" transform="translate(-24.282 457.138)"/><path class="x" d="M63.562,47.937,137.831,34.76s-28.111,152.931-31.944,170.58S91.193,339.265,91.193,339.265L58.85,335.432s0-127.057,2-138.4S63.562,47.937,63.562,47.937Z" transform="translate(13.684 197.889)"/><path class="y" d="M77.75,109.808c-3.673-23.958-1.2-42.645-6.469-54.3-2.076-4.632-8.944-3.434-10.542-7.986a14.374,14.374,0,0,0,2.316-3.674l61.732-9.264S96.837,166.428,89.569,198.771C89.569,198.931,80.7,129.214,77.75,109.808Z" transform="translate(26.888 196.632)"/><path class="x" d="M63.3,35.49l59.655,15.173a113.88,113.88,0,0,1,3.594,49.513c-4.871,33.222-5.43,85.21-5.989,92.318s11.1,119.151,12.219,145.983l-31.944,1.358S76.157,199.362,74.72,196.088,63.3,35.49,63.3,35.49Z" transform="translate(44.771 202.989)"/><path class="v" d="M70.179,105.3c1.278-25.156-3.993-60.933,9.184-71.874a66.2,66.2,0,0,1,22.6-13.576A17.489,17.489,0,0,0,114.5,30.069c8.785,1.2,22.76-12.059,22.76-12.059s19.566,11.1,34.1,17.569c-3.514,11.66,0,20.524,0,31.944a70.443,70.443,0,0,0,2.556,18.927,143.744,143.744,0,0,0-12.857,33.86c-3.194,22.92,7.108,58.058,7.108,58.058a402.176,402.176,0,0,1-55.263,7.986,175.692,175.692,0,0,1-54.544-6.469A693.175,693.175,0,0,0,70.179,105.3Z" transform="translate(10.261 80.874)"/><path class="z" d="M115.8,126.8a33.721,33.721,0,0,0-.719-4.712c-.639-4.792-1.2-9.743-1.358-14.614a78.739,78.739,0,0,1,.559-13.9,144.384,144.384,0,0,1,12.857-33.861c-.479-1.677-.719-3.514-1.038-5.271s-.639-2.556-.8-3.913a68.533,68.533,0,0,1-.639-9.743c0-5.989-.479-12.458-.479-18.927a61.49,61.49,0,0,0-6.868,1.517C107.1,26.252,94,39.908,87.69,47.335,76.749,60.113,77.468,71.293,75.631,82.154c-3.594,19.965-1.837,57.739-10.541,77.863h1.118a402.178,402.178,0,0,0,55.263-7.986s-1.437-4.951-3.115-12.3C117.478,135.5,116.6,131.188,115.8,126.8Z" transform="translate(57.276 107.77)"/><path class="aa" d="M189.348,61.8s-30.027,28.031-33.7,26.993S92.8,59.327,89.284,55.095a55.34,55.34,0,0,1-4.632-7.986,37.383,37.383,0,0,0-2.236-3.674A38.735,38.735,0,0,1,79.3,39.682c-.639-1.2-2.076-7.427-4.153-7.986s-1.917.958-2.156,2.316S74.27,38,74.909,39.442s1.437,3.354.719,4.233-3.035-2.316-3.594-3.035a12.779,12.779,0,0,1-1.917-3.514,41.909,41.909,0,0,1-1.278-4.392,4.777,4.777,0,0,0-.559-2.715c-.559-.878-.639-2.875-.878-4.392s-.559-2.556-2-2.4-1.2,2.955-1.038,4.153a35.384,35.384,0,0,1,0,3.674c0,.8.719,2.476,0,3.194a18.05,18.05,0,0,1-1.837-5.111c0-1.038-1.437-7.427-3.274-6.948S57.819,27.3,58.3,29.14a15.971,15.971,0,0,0,1.358,3.514c0,.479,1.278,2.955.958,2.8-2.076-1.038-2.4-4.871-3.115-6.948s-2-5.031-3.434-2.4a4.632,4.632,0,0,0,0,3.354,15.972,15.972,0,0,0,2,4.951,13.1,13.1,0,0,1,1.278,3.354c-1.6-.639-3.194-5.989-5.031-5.43s-.958,2.715-.639,3.514A55.422,55.422,0,0,0,62.132,50.862,159.713,159.713,0,0,0,75.468,64.678c6.708,6.149,65.8,53.187,74.19,55.263s45.6-30.826,56.3-40.409S189.348,61.8,189.348,61.8Z" transform="translate(-39.909 109.913)"/><path class="v" d="M115.114,20.2c-7.507-1.6-17.809,22.281-32.343,44.721A125.064,125.064,0,0,1,66.16,85.362L67.6,86.48a232.938,232.938,0,0,1,22.121,22.361,153.25,153.25,0,0,0,39.93-55.1C134.121,41.2,131.086,23.63,115.114,20.2Z" transform="translate(64.751 95.618)"/><path class="aa" d="M108.612,10.507S72.275,5,67.8,8.99s-4.871,18.687-4.712,31.065-5.031,36.1,9.423,40.409,42.006-9.1,51.749-33.621C136.962,15.618,111.087,11.226,108.612,10.507Z" transform="translate(37.873 7.718)"/><path class="w" d="M88.684,7.557s-17.17.559-20.2,26.513c-1.358,11.66-4.312,20.684-.719,21.243a6.069,6.069,0,0,0,7.347-5.191c0-3.354,1.038-14.375,7.986-11.34s4.552,15.972-4.153,20.125a10.941,10.941,0,0,0,5.191,11.66A48.635,48.635,0,0,0,104.9,38.623C107.372,18.418,99.705,7,88.684,7.557Z" transform="translate(63.949 7.714)"/><path class="w" d="M128.292,23.215A25,25,0,0,0,105.053,5.645,47.916,47.916,0,0,0,61.37,31.2S66.4,40.544,86.286,41.582a72.513,72.513,0,0,0,30.107-5.59A21.4,21.4,0,0,0,128.292,23.215Z" transform="translate(31.289 -5.628)"/></g></g></svg>