<svg xmlns="http://www.w3.org/2000/svg" width="257.058" height="57.424" viewBox="0 0 257.058 57.424"><defs><style>.a{fill:#fff;}</style></defs><g transform="translate(0 4.273)"><path class="a" d="M8.14-5.7v-4.588h9.25V-15.91H8.14V-20.2H18.315v-5.7H2.22V0H18.5V-5.7Zm13.21-.885H32.37v-4.176H21.35ZM56.15-20.3H51.51L46-11.281,40.49-20.3H35.85V0h4.64V-11.8L45.739-3.19h.522L51.51-11.8V0h4.64ZM63.371-5.51h10.3a8.429,8.429,0,0,0,.174-1.74,7.321,7.321,0,0,0-7.366-7.656A7.434,7.434,0,0,0,58.76-7.25c0,4.321,3.074,7.656,8.033,7.656a7.358,7.358,0,0,0,6.322-2.987l-3.48-2a3.786,3.786,0,0,1-2.784,1.1C65.256-3.48,63.922-4,63.371-5.51Zm-.087-3.248a2.993,2.993,0,0,1,3.161-2.291,2.985,2.985,0,0,1,3.074,2.291ZM84.8-14.906a4.959,4.959,0,0,0-4.147,1.769V-14.5h-4.35V0h4.35V-7.917c0-2.059,1.1-2.987,2.7-2.987a2.391,2.391,0,0,1,2.523,2.639V0h4.35V-8.9C90.225-12.818,87.731-14.906,84.8-14.906Zm17.777.406v7.917c0,2.059-1.1,2.987-2.7,2.987a2.391,2.391,0,0,1-2.523-2.639V-14.5h-4.35v8.9c0,3.915,2.494,6,5.423,6a4.959,4.959,0,0,0,4.147-1.769V0h4.35V-14.5ZM130.1-10.527a5.082,5.082,0,0,0,1.769-3.973c0-3.509-2.871-5.8-6.409-5.8h-7.946V0h8.526c3.625,0,6.554-2.349,6.554-5.945A5.242,5.242,0,0,0,130.1-10.527Zm-4.64-5.423a1.7,1.7,0,0,1,1.769,1.8,1.713,1.713,0,0,1-1.769,1.8h-3.306v-3.6Zm.58,11.6h-3.886V-8.236h3.886a1.834,1.834,0,0,1,1.914,1.943A1.834,1.834,0,0,1,126.04-4.35ZM143.469-14.5l-2.726,8.874L137.524-14.5h-4.785L138.51-.667c-.638,1.769-1.6,2.407-3.625,2.407V5.8c4.06.2,6.641-1.624,8.265-6.235L148.109-14.5Zm27.26-5.8h-15.08v4.466h5.22V0h4.64V-15.834h5.22Zm4.06,4.524a2.637,2.637,0,0,0,2.61-2.61,2.637,2.637,0,0,0-2.61-2.61,2.637,2.637,0,0,0-2.61,2.61A2.637,2.637,0,0,0,174.789-15.776ZM172.614,0h4.35V-14.5h-4.35Zm15.515-16.53v-4.176c-4.814-.29-7.047,2.146-7.047,6.206h-1.943v4.176h1.943V0h4.35V-10.324h2.7V-14.5h-2.7C185.432-16.182,186.5-16.675,188.129-16.53Z" transform="translate(-2.22 25.9)"/><path class="a" d="M12.844-.9V0H3.887A7.471,7.471,0,0,1,1.911-.208,1.9,1.9,0,0,1,.851-.871,2.081,2.081,0,0,1,.52-2.119,9.666,9.666,0,0,1,.643-3.484Q.767-4.316.936-5.07l.78.039q-.013.091-.091.65a18.819,18.819,0,0,0-.208,2.028,1.456,1.456,0,0,0,.228.871,1.294,1.294,0,0,0,.754.449A6.183,6.183,0,0,0,3.874-.9H6.812a5.115,5.115,0,0,1-.351-2.2,6,6,0,0,1,.28-2.067,1.771,1.771,0,0,1,.936-1.027,4.632,4.632,0,0,1,1.865-.3,16.09,16.09,0,0,1,1.794.091l.364.039V-.9ZM7.449-3.12A3.637,3.637,0,0,0,7.93-.9H10.7V-5.564q-.884-.065-1.248-.065A2.542,2.542,0,0,0,8.2-5.382a1.291,1.291,0,0,0-.592.78A5.3,5.3,0,0,0,7.449-3.12ZM9.035-8.8h.988v1.092H9.035ZM17.719-.9V0H12.844V-.9h1.937V-6.5h1V-.9ZM13.962,1.04h.988V2.132h-.988Zm1.625,0h.988V2.132h-.988Zm8.151-7.67a3.01,3.01,0,0,1,1.4.338,2.613,2.613,0,0,1,1.079,1.1,3.942,3.942,0,0,1,.422,1.93V0H17.719V-.9h1.222V-9.334h1V-3.64a9.513,9.513,0,0,1,1.7-2.171A3.007,3.007,0,0,1,23.738-6.63Zm-.195.9a2.513,2.513,0,0,0-1.749.786A6.35,6.35,0,0,0,20.455-3.1a4.222,4.222,0,0,0-.514,1.723V-.9h5.694V-3.276a2.8,2.8,0,0,0-.319-1.411,1.969,1.969,0,0,0-.8-.8A2.114,2.114,0,0,0,23.543-5.733ZM38.974,0H37.492V.52A2.435,2.435,0,0,1,37.043,2a2.727,2.727,0,0,1-1.2.917,4.272,4.272,0,0,1-1.632.306,4.166,4.166,0,0,1-1.729-.351A3.028,3.028,0,0,1,31.252,1.9,2.364,2.364,0,0,1,30.8.468,14.516,14.516,0,0,1,30.953-1.2q.156-1.17.364-2.353l.962.052q-.2,1.274-.338,2.4A14.918,14.918,0,0,0,31.8.4a1.67,1.67,0,0,0,.318,1,2.064,2.064,0,0,0,.865.683,2.967,2.967,0,0,0,1.209.24,2.647,2.647,0,0,0,1.632-.5A1.672,1.672,0,0,0,36.491.4V-6.5h1V-.9h1.482ZM33.748-7.592h.988V-6.5h-.988Zm9.7.962a3.124,3.124,0,0,1,2.34.78,3.67,3.67,0,0,1,.754,2.6V0H38.974V-.9h2.145a14.136,14.136,0,0,1-.182-2.275,14.2,14.2,0,0,1,.1-1.723,12.381,12.381,0,0,1,.234-1.385,4.73,4.73,0,0,1,.91-.24A6.933,6.933,0,0,1,43.446-6.63ZM41.938-3.172q0,.637.058,1.268T42.12-.9h3.419V-3.263a2.657,2.657,0,0,0-.559-1.9,2.284,2.284,0,0,0-1.7-.572,4.459,4.459,0,0,0-1.131.13A13.444,13.444,0,0,0,41.938-3.172ZM58.1-.9V0H53.768a4.2,4.2,0,0,1-1.82-.325,1.927,1.927,0,0,1-.956-1.033A5.18,5.18,0,0,1,50.7-3.289a5.521,5.521,0,0,1,.279-1.937A1.94,1.94,0,0,1,51.9-6.292a3.755,3.755,0,0,1,1.736-.338q.481,0,1.475.046t1.5.1V-.9ZM51.7-3.315A3.805,3.805,0,0,0,51.915-1.9a1.426,1.426,0,0,0,.7.761,3.008,3.008,0,0,0,1.326.24h1.677V-5.642Q54.47-5.72,53.846-5.72a2.1,2.1,0,0,0-1.664.559A2.823,2.823,0,0,0,51.7-3.315ZM52.715-8.8H53.7v1.092h-.988Zm1.625,0h.988v1.092H54.34ZM62.972-.9V0H58.1V-.9h1.937V-6.5h1V-.9ZM59.215,1.04H60.2V2.132h-.988Zm1.625,0h.988V2.132H60.84ZM65.91-6.5V0H62.972V-.9h1.937V-6.5Zm-1-2.3H65.9v1.092h-.988Zm5.343,2.054a12.155,12.155,0,0,1,1.255.078q.734.078,1.215.169V-.806a6.872,6.872,0,0,1-.514,3.049,1.834,1.834,0,0,1-1.774.981,15.826,15.826,0,0,1-1.963-.2V2.145a13.565,13.565,0,0,0,1.9.182,1.453,1.453,0,0,0,.735-.163,1.16,1.16,0,0,0,.448-.669A5.009,5.009,0,0,0,71.721,0H69.81a1.907,1.907,0,0,1-1.879-.9,5.086,5.086,0,0,1-.462-2.327A6.854,6.854,0,0,1,67.7-5.194a2.041,2.041,0,0,1,.845-1.157A3.114,3.114,0,0,1,70.252-6.747Zm-1.781,3.5a3.7,3.7,0,0,0,.338,1.7A1.4,1.4,0,0,0,70.187-.9h1.534V-5.759A9.674,9.674,0,0,0,70.5-5.85a2.224,2.224,0,0,0-1.235.293,1.532,1.532,0,0,0-.618.858A4.992,4.992,0,0,0,68.471-3.25ZM78.754,0H77.129V.143q0,3.094-2.145,3.094-.208,0-.383-.013T74.295,3.2l-.273-.026V2.288q.65.052.819.052a1.062,1.062,0,0,0,.969-.513A2.726,2.726,0,0,0,76.128.39V-6.487h1V-.9h1.625Zm4.875-.9V0H78.754V-.9h1.937V-6.5h1V-.9ZM79.885-8.8h.988v1.092h-.988Zm1.625,0H82.5v1.092H81.51ZM92.326-.9V0h-8.7V-.9h5.837V-2.782a2.934,2.934,0,0,0-.292-1.352,1.03,1.03,0,0,0-.969-.585H84.682l-.663-.9.676-1.326A9.1,9.1,0,0,1,85.4-8.08q.475-.67.956-1.255l.715.4q-.6.9-.9,1.385t-.546.968l-.494.962h3.146a1.847,1.847,0,0,1,1.658.793,3.648,3.648,0,0,1,.526,2.054V-.9Zm2.6-8.437V0h-2.6V-.9h1.6V-9.334Zm7.839,0V0H96.616V-.9H98.28V-7.579h1V-.9h2.5V-9.334ZM100.1,3.2l-2.652.52L97.331,3.3l.624-.169a1.145,1.145,0,0,1-.442-.923,1.137,1.137,0,0,1,.338-.825,1.167,1.167,0,0,1,.871-.345,1.491,1.491,0,0,1,.559.1,1.578,1.578,0,0,1,.39.208l-.13.494a.918.918,0,0,0-.241-.13.954.954,0,0,0-.357-.065.736.736,0,0,0-.552.221.722.722,0,0,0-.215.52.7.7,0,0,0,.3.6l1.482-.39Zm4.875-12.532h1V0h-1Zm9,2.7a3.124,3.124,0,0,1,2.34.78,3.67,3.67,0,0,1,.754,2.6V0h-4.186q-1.443,0-1.443,1.781a12.735,12.735,0,0,0,.351,2.444l-.845.026a14.738,14.738,0,0,1-.4-2.834,2.786,2.786,0,0,1,.319-1.463,1.677,1.677,0,0,1,.813-.709,12.96,12.96,0,0,1-.208-2.418,14.2,14.2,0,0,1,.1-1.723,12.383,12.383,0,0,1,.234-1.385,4.73,4.73,0,0,1,.91-.24A6.933,6.933,0,0,1,113.971-6.63ZM116.064-.9V-3.263a2.657,2.657,0,0,0-.559-1.9,2.284,2.284,0,0,0-1.7-.572,4.459,4.459,0,0,0-1.131.13,13.444,13.444,0,0,0-.208,2.431q0,.637.059,1.268T112.645-.9Zm5.174,0V0h-2.223V-9.334h1V-.9Zm7.969,0V0h-1.365a5.885,5.885,0,0,1-1.326-.156A5.333,5.333,0,0,1,125.281-.6a6.1,6.1,0,0,1-1.215.436A5.37,5.37,0,0,1,122.772,0h-1.534V-.9h1.5a4.468,4.468,0,0,0,1.586-.3A6.09,6.09,0,0,1,122.72-3a4.07,4.07,0,0,1-.624-1.833l-.039-.923a6.917,6.917,0,0,1,3.211-.871,7.124,7.124,0,0,1,3.237.871l-.039.923a3.621,3.621,0,0,1-.286,1.15,5.782,5.782,0,0,1-.76,1.306,5.9,5.9,0,0,1-1.177,1.17,4.237,4.237,0,0,0,1.586.312Zm-6.123-4.355a3.622,3.622,0,0,0,.6,2,5.163,5.163,0,0,0,1.6,1.567,5.327,5.327,0,0,0,1.6-1.573,3.577,3.577,0,0,0,.611-1.989,6.5,6.5,0,0,0-2.21-.481A6.56,6.56,0,0,0,123.084-5.252ZM139.347-.9V0h-10.14V-.9h1.222V-9.334h1V-3.64a9.513,9.513,0,0,1,1.7-2.171,3.007,3.007,0,0,1,2.093-.819,3.01,3.01,0,0,1,1.4.338,2.613,2.613,0,0,1,1.079,1.1,3.943,3.943,0,0,1,.423,1.93V-.9Zm-4.316-4.836a2.513,2.513,0,0,0-1.749.786A6.35,6.35,0,0,0,131.943-3.1a4.222,4.222,0,0,0-.513,1.723V-.9h5.694V-3.276a2.8,2.8,0,0,0-.319-1.411,1.969,1.969,0,0,0-.8-.8A2.114,2.114,0,0,0,135.031-5.733Zm6.916-3.6V0h-2.6V-.9h1.6V-9.334Zm2.34,0h1V0h-1ZM157.235-.9V0h-4.329a4.2,4.2,0,0,1-1.82-.325,1.927,1.927,0,0,1-.956-1.033,5.18,5.18,0,0,1-.292-1.931,5.521,5.521,0,0,1,.279-1.937,1.94,1.94,0,0,1,.923-1.066,3.755,3.755,0,0,1,1.735-.338q.481,0,1.476.046t1.5.1V-.9Zm-6.4-2.418a3.8,3.8,0,0,0,.215,1.417,1.426,1.426,0,0,0,.7.761,3.008,3.008,0,0,0,1.326.24h1.677V-5.642q-1.144-.078-1.768-.078a2.1,2.1,0,0,0-1.664.559A2.823,2.823,0,0,0,150.839-3.315ZM151.853-8.8h.988v1.092h-.988Zm1.625,0h.988v1.092h-.988ZM166.257-.9V0h-.416a1.2,1.2,0,0,1-.527-.137,1.91,1.91,0,0,1-.514-.371V0h-7.566V-.9h2.145a14.136,14.136,0,0,1-.182-2.275,14.194,14.194,0,0,1,.1-1.723,12.385,12.385,0,0,1,.234-1.385,4.731,4.731,0,0,1,.91-.24,6.933,6.933,0,0,1,1.261-.111,3.124,3.124,0,0,1,2.34.78,3.67,3.67,0,0,1,.754,2.6v1.859a1.3,1.3,0,0,0,1.04.494ZM160.2-3.172q0,.637.059,1.268T160.381-.9H163.8V-3.263a2.657,2.657,0,0,0-.559-1.9,2.284,2.284,0,0,0-1.7-.572,4.459,4.459,0,0,0-1.131.13A13.445,13.445,0,0,0,160.2-3.172Zm9-3.328V0h-2.938V-.9h1.937V-6.5Zm.832-1.794-2.652.52-.117-.416.624-.169a1.145,1.145,0,0,1-.442-.923,1.137,1.137,0,0,1,.338-.825,1.167,1.167,0,0,1,.871-.345,1.491,1.491,0,0,1,.559.1,1.578,1.578,0,0,1,.39.208l-.13.494a.918.918,0,0,0-.24-.13.954.954,0,0,0-.357-.065.736.736,0,0,0-.553.221.722.722,0,0,0-.215.52.7.7,0,0,0,.3.6l1.482-.39Zm3.6,7.4V0H171.4V-9.334h1V-.9Zm6.734-5.46V0h-6.734V-.9h1.846a5.116,5.116,0,0,1-.351-2.2,6,6,0,0,1,.28-2.067,1.771,1.771,0,0,1,.936-1.027,4.632,4.632,0,0,1,1.866-.3A16.09,16.09,0,0,1,180-6.4ZM176.111-3.12A3.637,3.637,0,0,0,176.592-.9h2.769V-5.564q-.884-.065-1.248-.065a2.542,2.542,0,0,0-1.248.247,1.291,1.291,0,0,0-.592.78A5.3,5.3,0,0,0,176.111-3.12ZM176.7-8.8h.988v1.092H176.7Zm1.625,0h.988v1.092h-.988Z" transform="translate(2.78 48.9)"/></g><g transform="translate(201.249)"><g transform="translate(0 0)"><path class="a" d="M445.272,0V33.973H416.695a21.07,21.07,0,0,0-9.284,2.111,22.855,22.855,0,0,0-7.49,5.747V0Z" transform="translate(-389.462)"/><path class="a" d="M439.838,96.316v6.18a7.386,7.386,0,0,1-.428,2.569,6.286,6.286,0,0,1-1.242,2.077,5.914,5.914,0,0,1-1.94,1.417,5.8,5.8,0,0,1-2.458.518H403.15c.158-.317.321-.634.484-.955q.694-1.358,1.443-2.861a17.661,17.661,0,0,1,5.494-6.471,13.374,13.374,0,0,1,7.978-2.484h21.284Z" transform="translate(-391.309 -55.063)"/><path class="a" d="M379.821,12.792l1.233-1.242-4.981,4.981a1.966,1.966,0,0,0-.574,1.388v42.7h3.178V15.563a3.927,3.927,0,0,1,1.144-2.771Z" transform="translate(-375.5 -6.604)"/></g></g></svg>